<svg xmlns="http://www.w3.org/2000/svg" xmlns:xlink="http://www.w3.org/1999/xlink" zoomAndPan="magnify" preserveAspectRatio="xMidYMid meet" version="1.0" viewBox="44.12 159.13 291.65 78.84"><defs><g/><clipPath id="6bf0ef93d7"><path d="M 232 203 L 246 203 L 246 208 L 232 208 Z M 232 203 " clip-rule="nonzero"/></clipPath><clipPath id="7773a92737"><path d="M 214.726562 198.714844 L 298.628906 202.753906 L 296.933594 237.964844 L 213.03125 233.921875 Z M 214.726562 198.714844 " clip-rule="nonzero"/></clipPath><clipPath id="c3b76b394e"><path d="M 214.726562 198.714844 L 298.628906 202.753906 L 296.933594 237.964844 L 213.03125 233.921875 Z M 214.726562 198.714844 " clip-rule="nonzero"/></clipPath><clipPath id="d251ad474d"><path d="M 234 229 L 267 229 L 267 236 L 234 236 Z M 234 229 " clip-rule="nonzero"/></clipPath><clipPath id="72c8793a87"><path d="M 214.726562 198.714844 L 298.628906 202.753906 L 296.933594 237.964844 L 213.03125 233.921875 Z M 214.726562 198.714844 " clip-rule="nonzero"/></clipPath><clipPath id="a7fc72ded0"><path d="M 214.726562 198.714844 L 298.628906 202.753906 L 296.933594 237.964844 L 213.03125 233.921875 Z M 214.726562 198.714844 " clip-rule="nonzero"/></clipPath><clipPath id="035b0d457a"><path d="M 266 230 L 268 230 L 268 232 L 266 232 Z M 266 230 " clip-rule="nonzero"/></clipPath><clipPath id="4611e66200"><path d="M 214.726562 198.714844 L 298.628906 202.753906 L 296.933594 237.964844 L 213.03125 233.921875 Z M 214.726562 198.714844 " clip-rule="nonzero"/></clipPath><clipPath id="5892c5a7aa"><path d="M 214.726562 198.714844 L 298.628906 202.753906 L 296.933594 237.964844 L 213.03125 233.921875 Z M 214.726562 198.714844 " clip-rule="nonzero"/></clipPath><clipPath id="b7be672a22"><path d="M 213 218 L 215 218 L 215 220 L 213 220 Z M 213 218 " clip-rule="nonzero"/></clipPath><clipPath id="8ed32b5563"><path d="M 214.726562 198.714844 L 298.628906 202.753906 L 296.933594 237.964844 L 213.03125 233.921875 Z M 214.726562 198.714844 " clip-rule="nonzero"/></clipPath><clipPath id="6cb1554c65"><path d="M 214.726562 198.714844 L 298.628906 202.753906 L 296.933594 237.964844 L 213.03125 233.921875 Z M 214.726562 198.714844 " clip-rule="nonzero"/></clipPath><clipPath id="f185b2cbef"><path d="M 214 201 L 298 201 L 298 231 L 214 231 Z M 214 201 " clip-rule="nonzero"/></clipPath><clipPath id="3ea083f7e8"><path d="M 214.726562 198.714844 L 298.628906 202.753906 L 296.933594 237.964844 L 213.03125 233.921875 Z M 214.726562 198.714844 " clip-rule="nonzero"/></clipPath><clipPath id="1e05aeebc7"><path d="M 214.726562 198.714844 L 298.628906 202.753906 L 296.933594 237.964844 L 213.03125 233.921875 Z M 214.726562 198.714844 " clip-rule="nonzero"/></clipPath><clipPath id="60550c8eee"><path d="M 229 232 L 231 232 L 231 233 L 229 233 Z M 229 232 " clip-rule="nonzero"/></clipPath><clipPath id="5b53ef6c01"><path d="M 214.726562 198.714844 L 298.628906 202.753906 L 296.933594 237.964844 L 213.03125 233.921875 Z M 214.726562 198.714844 " clip-rule="nonzero"/></clipPath><clipPath id="383cc4e779"><path d="M 214.726562 198.714844 L 298.628906 202.753906 L 296.933594 237.964844 L 213.03125 233.921875 Z M 214.726562 198.714844 " clip-rule="nonzero"/></clipPath><clipPath id="ddc2f23675"><path d="M 231 231 L 234 231 L 234 232 L 231 232 Z M 231 231 " clip-rule="nonzero"/></clipPath><clipPath id="e9cb40afbd"><path d="M 214.726562 198.714844 L 298.628906 202.753906 L 296.933594 237.964844 L 213.03125 233.921875 Z M 214.726562 198.714844 " clip-rule="nonzero"/></clipPath><clipPath id="8a265969ca"><path d="M 214.726562 198.714844 L 298.628906 202.753906 L 296.933594 237.964844 L 213.03125 233.921875 Z M 214.726562 198.714844 " clip-rule="nonzero"/></clipPath><clipPath id="49de4d81ff"><path d="M 280 225 L 282 225 L 282 226 L 280 226 Z M 280 225 " clip-rule="nonzero"/></clipPath><clipPath id="fccfeec6cf"><path d="M 214.726562 198.714844 L 298.628906 202.753906 L 296.933594 237.964844 L 213.03125 233.921875 Z M 214.726562 198.714844 " clip-rule="nonzero"/></clipPath><clipPath id="ff2448b766"><path d="M 214.726562 198.714844 L 298.628906 202.753906 L 296.933594 237.964844 L 213.03125 233.921875 Z M 214.726562 198.714844 " clip-rule="nonzero"/></clipPath><clipPath id="968f296c52"><path d="M 286 228 L 289 228 L 289 230 L 286 230 Z M 286 228 " clip-rule="nonzero"/></clipPath><clipPath id="31f9a812f1"><path d="M 214.726562 198.714844 L 298.628906 202.753906 L 296.933594 237.964844 L 213.03125 233.921875 Z M 214.726562 198.714844 " clip-rule="nonzero"/></clipPath><clipPath id="197ecae085"><path d="M 214.726562 198.714844 L 298.628906 202.753906 L 296.933594 237.964844 L 213.03125 233.921875 Z M 214.726562 198.714844 " clip-rule="nonzero"/></clipPath><clipPath id="cbdca8c34b"><path d="M 233 230 L 235 230 L 235 232 L 233 232 Z M 233 230 " clip-rule="nonzero"/></clipPath><clipPath id="6e23f95719"><path d="M 214.726562 198.714844 L 298.628906 202.753906 L 296.933594 237.964844 L 213.03125 233.921875 Z M 214.726562 198.714844 " clip-rule="nonzero"/></clipPath><clipPath id="5cb8bb5593"><path d="M 214.726562 198.714844 L 298.628906 202.753906 L 296.933594 237.964844 L 213.03125 233.921875 Z M 214.726562 198.714844 " clip-rule="nonzero"/></clipPath><clipPath id="0c8dd97541"><path d="M 271 201 L 273 201 L 273 202 L 271 202 Z M 271 201 " clip-rule="nonzero"/></clipPath><clipPath id="4f3da2e72a"><path d="M 214.726562 198.714844 L 298.628906 202.753906 L 296.933594 237.964844 L 213.03125 233.921875 Z M 214.726562 198.714844 " clip-rule="nonzero"/></clipPath><clipPath id="752d16b87d"><path d="M 214.726562 198.714844 L 298.628906 202.753906 L 296.933594 237.964844 L 213.03125 233.921875 Z M 214.726562 198.714844 " clip-rule="nonzero"/></clipPath><clipPath id="73f4a60ab6"><path d="M 230 231 L 232 231 L 232 233 L 230 233 Z M 230 231 " clip-rule="nonzero"/></clipPath><clipPath id="9016ea2c9d"><path d="M 214.726562 198.714844 L 298.628906 202.753906 L 296.933594 237.964844 L 213.03125 233.921875 Z M 214.726562 198.714844 " clip-rule="nonzero"/></clipPath><clipPath id="a1fc5726dc"><path d="M 214.726562 198.714844 L 298.628906 202.753906 L 296.933594 237.964844 L 213.03125 233.921875 Z M 214.726562 198.714844 " clip-rule="nonzero"/></clipPath><clipPath id="2fba64ad15"><path d="M 278 202 L 280 202 L 280 203 L 278 203 Z M 278 202 " clip-rule="nonzero"/></clipPath><clipPath id="a4bee359c0"><path d="M 214.726562 198.714844 L 298.628906 202.753906 L 296.933594 237.964844 L 213.03125 233.921875 Z M 214.726562 198.714844 " clip-rule="nonzero"/></clipPath><clipPath id="704ca66030"><path d="M 214.726562 198.714844 L 298.628906 202.753906 L 296.933594 237.964844 L 213.03125 233.921875 Z M 214.726562 198.714844 " clip-rule="nonzero"/></clipPath><clipPath id="a29852de94"><path d="M 287 209 L 288 209 L 288 210 L 287 210 Z M 287 209 " clip-rule="nonzero"/></clipPath><clipPath id="5f9841cf20"><path d="M 214.726562 198.714844 L 298.628906 202.753906 L 296.933594 237.964844 L 213.03125 233.921875 Z M 214.726562 198.714844 " clip-rule="nonzero"/></clipPath><clipPath id="b71c017f4b"><path d="M 214.726562 198.714844 L 298.628906 202.753906 L 296.933594 237.964844 L 213.03125 233.921875 Z M 214.726562 198.714844 " clip-rule="nonzero"/></clipPath><clipPath id="50f05153e0"><path d="M 288 207 L 289 207 L 289 208 L 288 208 Z M 288 207 " clip-rule="nonzero"/></clipPath><clipPath id="3949789faa"><path d="M 214.726562 198.714844 L 298.628906 202.753906 L 296.933594 237.964844 L 213.03125 233.921875 Z M 214.726562 198.714844 " clip-rule="nonzero"/></clipPath><clipPath id="6b45ff009f"><path d="M 214.726562 198.714844 L 298.628906 202.753906 L 296.933594 237.964844 L 213.03125 233.921875 Z M 214.726562 198.714844 " clip-rule="nonzero"/></clipPath><clipPath id="bdd0b137e3"><path d="M 268 231 L 269 231 L 269 232 L 268 232 Z M 268 231 " clip-rule="nonzero"/></clipPath><clipPath id="f5bb6df9a8"><path d="M 214.726562 198.714844 L 298.628906 202.753906 L 296.933594 237.964844 L 213.03125 233.921875 Z M 214.726562 198.714844 " clip-rule="nonzero"/></clipPath><clipPath id="7bd6580200"><path d="M 214.726562 198.714844 L 298.628906 202.753906 L 296.933594 237.964844 L 213.03125 233.921875 Z M 214.726562 198.714844 " clip-rule="nonzero"/></clipPath><clipPath id="de8ad872b6"><path d="M 284 208 L 286 208 L 286 210 L 284 210 Z M 284 208 " clip-rule="nonzero"/></clipPath><clipPath id="6decbffc76"><path d="M 214.726562 198.714844 L 298.628906 202.753906 L 296.933594 237.964844 L 213.03125 233.921875 Z M 214.726562 198.714844 " clip-rule="nonzero"/></clipPath><clipPath id="b092266771"><path d="M 214.726562 198.714844 L 298.628906 202.753906 L 296.933594 237.964844 L 213.03125 233.921875 Z M 214.726562 198.714844 " clip-rule="nonzero"/></clipPath><clipPath id="db287a3c7f"><path d="M 231 206 L 232 206 L 232 207 L 231 207 Z M 231 206 " clip-rule="nonzero"/></clipPath><clipPath id="23e890ca43"><path d="M 214.726562 198.714844 L 298.628906 202.753906 L 296.933594 237.964844 L 213.03125 233.921875 Z M 214.726562 198.714844 " clip-rule="nonzero"/></clipPath><clipPath id="ff1fc38f1a"><path d="M 214.726562 198.714844 L 298.628906 202.753906 L 296.933594 237.964844 L 213.03125 233.921875 Z M 214.726562 198.714844 " clip-rule="nonzero"/></clipPath><clipPath id="31e2890548"><path d="M 288 207 L 289 207 L 289 208 L 288 208 Z M 288 207 " clip-rule="nonzero"/></clipPath><clipPath id="73454495b7"><path d="M 214.726562 198.714844 L 298.628906 202.753906 L 296.933594 237.964844 L 213.03125 233.921875 Z M 214.726562 198.714844 " clip-rule="nonzero"/></clipPath><clipPath id="9cf627f443"><path d="M 214.726562 198.714844 L 298.628906 202.753906 L 296.933594 237.964844 L 213.03125 233.921875 Z M 214.726562 198.714844 " clip-rule="nonzero"/></clipPath><clipPath id="37e63b6080"><path d="M 224 211 L 225 211 L 225 213 L 224 213 Z M 224 211 " clip-rule="nonzero"/></clipPath><clipPath id="3f2df1646c"><path d="M 214.726562 198.714844 L 298.628906 202.753906 L 296.933594 237.964844 L 213.03125 233.921875 Z M 214.726562 198.714844 " clip-rule="nonzero"/></clipPath><clipPath id="7eaf769549"><path d="M 214.726562 198.714844 L 298.628906 202.753906 L 296.933594 237.964844 L 213.03125 233.921875 Z M 214.726562 198.714844 " clip-rule="nonzero"/></clipPath><clipPath id="b9cfc36f58"><path d="M 274 202 L 278 202 L 278 203 L 274 203 Z M 274 202 " clip-rule="nonzero"/></clipPath><clipPath id="01a74751c6"><path d="M 214.726562 198.714844 L 298.628906 202.753906 L 296.933594 237.964844 L 213.03125 233.921875 Z M 214.726562 198.714844 " clip-rule="nonzero"/></clipPath><clipPath id="956c8661f4"><path d="M 214.726562 198.714844 L 298.628906 202.753906 L 296.933594 237.964844 L 213.03125 233.921875 Z M 214.726562 198.714844 " clip-rule="nonzero"/></clipPath><clipPath id="58dbc14059"><path d="M 245 205 L 247 205 L 247 206 L 245 206 Z M 245 205 " clip-rule="nonzero"/></clipPath><clipPath id="8f12e725e8"><path d="M 214.726562 198.714844 L 298.628906 202.753906 L 296.933594 237.964844 L 213.03125 233.921875 Z M 214.726562 198.714844 " clip-rule="nonzero"/></clipPath><clipPath id="b25791b604"><path d="M 214.726562 198.714844 L 298.628906 202.753906 L 296.933594 237.964844 L 213.03125 233.921875 Z M 214.726562 198.714844 " clip-rule="nonzero"/></clipPath><clipPath id="77546e370f"><path d="M 280 223 L 282 223 L 282 225 L 280 225 Z M 280 223 " clip-rule="nonzero"/></clipPath><clipPath id="1e04312194"><path d="M 214.726562 198.714844 L 298.628906 202.753906 L 296.933594 237.964844 L 213.03125 233.921875 Z M 214.726562 198.714844 " clip-rule="nonzero"/></clipPath><clipPath id="1563c76217"><path d="M 214.726562 198.714844 L 298.628906 202.753906 L 296.933594 237.964844 L 213.03125 233.921875 Z M 214.726562 198.714844 " clip-rule="nonzero"/></clipPath><clipPath id="27cbdc8516"><path d="M 280 223 L 281 223 L 281 224 L 280 224 Z M 280 223 " clip-rule="nonzero"/></clipPath><clipPath id="58d271ba88"><path d="M 214.726562 198.714844 L 298.628906 202.753906 L 296.933594 237.964844 L 213.03125 233.921875 Z M 214.726562 198.714844 " clip-rule="nonzero"/></clipPath><clipPath id="8c65428fc1"><path d="M 214.726562 198.714844 L 298.628906 202.753906 L 296.933594 237.964844 L 213.03125 233.921875 Z M 214.726562 198.714844 " clip-rule="nonzero"/></clipPath><clipPath id="76cd345da9"><path d="M 224 212 L 225 212 L 225 213 L 224 213 Z M 224 212 " clip-rule="nonzero"/></clipPath><clipPath id="ca048e8f4d"><path d="M 214.726562 198.714844 L 298.628906 202.753906 L 296.933594 237.964844 L 213.03125 233.921875 Z M 214.726562 198.714844 " clip-rule="nonzero"/></clipPath><clipPath id="1d628d5f48"><path d="M 214.726562 198.714844 L 298.628906 202.753906 L 296.933594 237.964844 L 213.03125 233.921875 Z M 214.726562 198.714844 " clip-rule="nonzero"/></clipPath><clipPath id="2f02820602"><path d="M 44.121094 167.476562 L 63 167.476562 L 63 180 L 44.121094 180 Z M 44.121094 167.476562 " clip-rule="nonzero"/></clipPath><clipPath id="d3378dd123"><path d="M 75 167.476562 L 93.621094 167.476562 L 93.621094 180 L 75 180 Z M 75 167.476562 " clip-rule="nonzero"/></clipPath><clipPath id="9bd77aa3cd"><path d="M 68 179 L 93.621094 179 L 93.621094 208.726562 L 68 208.726562 Z M 68 179 " clip-rule="nonzero"/></clipPath><clipPath id="e857a1b43b"><path d="M 44.121094 167.476562 L 80 167.476562 L 80 208.726562 L 44.121094 208.726562 Z M 44.121094 167.476562 " clip-rule="nonzero"/></clipPath><clipPath id="d51c507ad6"><path d="M 57 179 L 80 179 L 80 208.726562 L 57 208.726562 Z M 57 179 " clip-rule="nonzero"/></clipPath></defs><path stroke-linecap="butt" transform="matrix(0.622408, 0, 0, 0.622408, 86.739412, 162.603373)" fill="none" stroke-linejoin="miter" d="M 52.528567 3.072346 C 62.852639 3.072346 71.011479 5.658071 77.017641 10.816969 C 83.036356 15.982143 86.048851 23.362756 86.048851 32.958808 L 64.672688 32.958808 C 64.672688 28.898215 63.612038 25.691163 61.484464 23.337651 C 59.356889 20.977864 56.325566 19.79797 52.403046 19.79797 C 47.884304 19.79797 44.558007 21.216353 42.430432 24.053119 C 40.302858 26.889885 39.242208 30.837509 39.242208 35.902266 L 39.242208 42.385407 C 39.242208 47.381128 40.302858 51.3162 42.430432 54.184346 C 44.558007 57.052492 47.815267 58.489703 52.202213 58.489703 C 56.526399 58.489703 59.796211 57.37257 62.024202 55.150855 C 64.271022 52.922864 65.388155 49.778572 65.388155 45.724256 L 86.048851 45.724256 C 86.048851 55.257547 83.130496 62.556572 77.287511 67.615053 C 71.450802 72.67981 63.19782 75.215327 52.528567 75.215327 C 40.635487 75.215327 31.629382 72.177728 25.510252 66.108806 C 19.391121 60.021055 16.334694 51.033778 16.334694 39.140699 C 16.334694 27.253895 19.391121 18.272894 25.510252 12.203972 C 31.629382 6.116221 40.635487 3.072346 52.528567 3.072346 Z M 111.08394 26.080277 C 113.249171 23.921322 115.778412 22.245622 118.684214 21.059452 C 121.583741 19.873282 124.627616 19.277059 127.809564 19.277059 C 134.029111 19.277059 138.685926 21.002968 141.786286 24.448509 C 144.886645 27.89405 146.436825 32.858391 146.436825 39.341532 L 146.436825 73.997777 L 126.278212 73.997777 L 126.278212 41.76408 C 126.278212 39.473328 125.681989 37.634451 124.495819 36.247448 C 123.322201 34.860445 121.659053 34.170082 119.500098 34.170082 C 116.989686 34.170082 114.962527 34.985966 113.412348 36.617734 C 111.862168 38.23695 111.08394 40.226452 111.08394 42.579964 L 111.08394 73.997777 L 90.925327 73.997777 L 90.925327 0.524277 L 111.08394 0.524277 Z M 191.548939 73.997777 L 190.212144 65.882868 C 188.11595 68.788671 185.367048 71.073146 181.952887 72.736295 C 178.551278 74.386891 174.955112 75.215327 171.164389 75.215327 C 164.944842 75.215327 160.288026 73.489419 157.187667 70.043877 C 154.087307 66.59206 152.537128 61.627719 152.537128 55.150855 L 152.537128 20.488333 L 172.695741 20.488333 L 172.695741 52.722031 C 172.695741 55.019058 173.285687 56.857935 174.453029 58.238662 C 175.639199 59.625665 177.3149 60.322305 179.473854 60.322305 C 181.984267 60.322305 184.011425 59.512697 185.561605 57.89348 C 187.111785 56.261712 187.890013 54.265934 187.890013 51.906146 L 187.890013 20.488333 L 208.048625 20.488333 L 208.048625 73.997777 Z M 234.803347 25.465226 C 238.650555 21.341873 243.646276 19.277059 249.796787 19.277059 C 257.020499 19.277059 262.593615 21.630571 266.52241 26.331318 C 270.44493 31.02579 272.409328 37.973357 272.409328 47.161467 C 272.409328 56.412337 270.44493 63.403836 266.52241 68.135964 C 262.593615 72.855539 257.020499 75.215327 249.796787 75.215327 C 242.372241 75.215327 236.698709 72.278144 232.776189 66.403779 L 231.044005 73.997777 L 214.644735 73.997777 L 214.644735 0.524277 L 234.803347 0.524277 Z M 243.514479 34.170082 C 240.545916 34.170082 238.317925 35.237007 236.836782 37.364582 C 235.349362 39.492156 234.60879 42.241058 234.60879 45.623839 L 234.60879 48.962688 C 234.60879 52.345469 235.349362 55.081818 236.836782 57.178013 C 238.317925 59.274207 240.545916 60.322305 243.514479 60.322305 C 249.319808 60.322305 252.219335 56.870487 252.219335 49.979405 L 252.219335 44.613398 C 252.219335 37.653279 249.319808 34.170082 243.514479 34.170082 Z M 296.615981 25.465226 C 300.456912 21.341873 305.452633 19.277059 311.60942 19.277059 C 318.833132 19.277059 324.406248 21.630571 328.328768 26.331318 C 332.257563 31.02579 334.215685 37.973357 334.215685 47.161467 C 334.215685 56.412337 332.257563 63.403836 328.328768 68.135964 C 324.406248 72.855539 318.833132 75.215327 311.60942 75.215327 C 304.184875 75.215327 298.511342 72.278144 294.588823 66.403779 L 292.856638 73.997777 L 276.451092 73.997777 L 276.451092 0.524277 L 296.615981 0.524277 Z M 305.320836 34.170082 C 302.352274 34.170082 300.130558 35.237007 298.643139 37.364582 C 297.161996 39.492156 296.415148 42.241058 296.415148 45.623839 L 296.415148 48.962688 C 296.415148 52.345469 297.161996 55.081818 298.643139 57.178013 C 300.130558 59.274207 302.352274 60.322305 305.320836 60.322305 C 311.126166 60.322305 314.031968 56.870487 314.031968 49.979405 L 314.031968 44.613398 C 314.031968 37.653279 311.126166 34.170082 305.320836 34.170082 Z M 374.953405 72.366009 C 372.179399 79.872143 368.784066 85.558227 364.76113 89.436814 C 360.731918 93.327954 355.108594 95.273524 347.884882 95.273524 C 343.497936 95.273524 339.613072 94.664749 336.236567 93.447198 L 336.236567 81.397218 L 344.351476 81.397218 C 349.409957 81.397218 352.416176 78.930738 353.351305 73.997777 L 332.075558 20.488333 L 353.771799 20.488333 L 363.989178 56.067155 L 364.710922 56.067155 L 374.131245 20.488333 L 394.00116 20.488333 Z M 374.953405 72.366009 " stroke="#ffffff" stroke-width="7.599975" stroke-opacity="1" stroke-miterlimit="4"/><g fill="#000000" fill-opacity="1"><g transform="translate(94.072152, 208.66154)"><g><path d="M 25.34375 -44.140625 C 31.78125 -44.140625 36.867188 -42.53125 40.609375 -39.3125 C 44.347656 -36.101562 46.21875 -31.515625 46.21875 -25.546875 L 32.921875 -25.546875 C 32.921875 -28.066406 32.257812 -30.0625 30.9375 -31.53125 C 29.613281 -33 27.726562 -33.734375 25.28125 -33.734375 C 22.46875 -33.734375 20.398438 -32.847656 19.078125 -31.078125 C 17.753906 -29.316406 17.09375 -26.863281 17.09375 -23.71875 L 17.09375 -19.671875 C 17.09375 -16.566406 17.753906 -14.117188 19.078125 -12.328125 C 20.398438 -10.546875 22.425781 -9.65625 25.15625 -9.65625 C 27.851562 -9.65625 29.894531 -10.347656 31.28125 -11.734375 C 32.664062 -13.117188 33.359375 -15.070312 33.359375 -17.59375 L 46.21875 -17.59375 C 46.21875 -11.664062 44.398438 -7.125 40.765625 -3.96875 C 37.128906 -0.820312 31.988281 0.75 25.34375 0.75 C 17.945312 0.75 12.347656 -1.140625 8.546875 -4.921875 C 4.742188 -8.703125 2.84375 -14.289062 2.84375 -21.6875 C 2.84375 -29.09375 4.742188 -34.6875 8.546875 -38.46875 C 12.347656 -42.25 17.945312 -44.140625 25.34375 -44.140625 Z M 25.34375 -44.140625 "/></g></g></g><g fill="#000000" fill-opacity="1"><g transform="translate(139.543577, 208.66154)"><g><path d="M 16.328125 -29.828125 C 17.671875 -31.171875 19.25 -32.207031 21.0625 -32.9375 C 22.875 -33.675781 24.765625 -34.046875 26.734375 -34.046875 C 30.609375 -34.046875 33.507812 -32.972656 35.4375 -30.828125 C 37.375 -28.691406 38.34375 -25.601562 38.34375 -21.5625 L 38.34375 0 L 25.796875 0 L 25.796875 -20.046875 C 25.796875 -21.484375 25.425781 -22.628906 24.6875 -23.484375 C 23.945312 -24.347656 22.90625 -24.78125 21.5625 -24.78125 C 20.007812 -24.78125 18.75 -24.273438 17.78125 -23.265625 C 16.8125 -22.253906 16.328125 -21.015625 16.328125 -19.546875 L 16.328125 0 L 3.78125 0 L 3.78125 -45.71875 L 16.328125 -45.71875 Z M 16.328125 -29.828125 "/></g></g></g><g fill="#000000" fill-opacity="1"><g transform="translate(178.014521, 208.66154)"><g><path d="M 27.9375 0 L 27.109375 -5.046875 C 25.804688 -3.234375 24.09375 -1.8125 21.96875 -0.78125 C 19.851562 0.238281 17.617188 0.75 15.265625 0.75 C 11.390625 0.75 8.484375 -0.316406 6.546875 -2.453125 C 4.617188 -4.597656 3.65625 -7.691406 3.65625 -11.734375 L 3.65625 -33.296875 L 16.203125 -33.296875 L 16.203125 -13.25 C 16.203125 -11.8125 16.570312 -10.660156 17.3125 -9.796875 C 18.050781 -8.941406 19.09375 -8.515625 20.4375 -8.515625 C 21.988281 -8.515625 23.25 -9.019531 24.21875 -10.03125 C 25.1875 -11.039062 25.671875 -12.28125 25.671875 -13.75 L 25.671875 -33.296875 L 38.21875 -33.296875 L 38.21875 0 Z M 27.9375 0 "/></g></g></g><g fill="#000000" fill-opacity="1"><g transform="translate(216.485461, 208.66154)"><g><path d="M 16.390625 -30.203125 C 18.785156 -32.765625 21.898438 -34.046875 25.734375 -34.046875 C 30.234375 -34.046875 33.703125 -32.582031 36.140625 -29.65625 C 38.578125 -26.738281 39.796875 -22.425781 39.796875 -16.71875 C 39.796875 -10.957031 38.578125 -6.601562 36.140625 -3.65625 C 33.703125 -0.71875 30.234375 0.75 25.734375 0.75 C 21.109375 0.75 17.578125 -1.078125 15.140625 -4.734375 L 14.0625 0 L 3.84375 0 L 3.84375 -45.71875 L 16.390625 -45.71875 Z M 21.8125 -24.78125 C 19.96875 -24.78125 18.582031 -24.117188 17.65625 -22.796875 C 16.726562 -21.472656 16.265625 -19.757812 16.265625 -17.65625 L 16.265625 -15.578125 C 16.265625 -13.472656 16.726562 -11.769531 17.65625 -10.46875 C 18.582031 -9.164062 19.96875 -8.515625 21.8125 -8.515625 C 25.4375 -8.515625 27.25 -10.660156 27.25 -14.953125 L 27.25 -18.28125 C 27.25 -22.613281 25.4375 -24.78125 21.8125 -24.78125 Z M 21.8125 -24.78125 "/></g></g></g><g fill="#000000" fill-opacity="1"><g transform="translate(254.9564, 208.66154)"><g><path d="M 16.390625 -30.203125 C 18.785156 -32.765625 21.898438 -34.046875 25.734375 -34.046875 C 30.234375 -34.046875 33.703125 -32.582031 36.140625 -29.65625 C 38.578125 -26.738281 39.796875 -22.425781 39.796875 -16.71875 C 39.796875 -10.957031 38.578125 -6.601562 36.140625 -3.65625 C 33.703125 -0.71875 30.234375 0.75 25.734375 0.75 C 21.109375 0.75 17.578125 -1.078125 15.140625 -4.734375 L 14.0625 0 L 3.84375 0 L 3.84375 -45.71875 L 16.390625 -45.71875 Z M 21.8125 -24.78125 C 19.96875 -24.78125 18.582031 -24.117188 17.65625 -22.796875 C 16.726562 -21.472656 16.265625 -19.757812 16.265625 -17.65625 L 16.265625 -15.578125 C 16.265625 -13.472656 16.726562 -11.769531 17.65625 -10.46875 C 18.582031 -9.164062 19.96875 -8.515625 21.8125 -8.515625 C 25.4375 -8.515625 27.25 -10.660156 27.25 -14.953125 L 27.25 -18.28125 C 27.25 -22.613281 25.4375 -24.78125 21.8125 -24.78125 Z M 21.8125 -24.78125 "/></g></g></g><g fill="#000000" fill-opacity="1"><g transform="translate(293.427339, 208.66154)"><g><path d="M 26.671875 -1.015625 C 24.953125 3.648438 22.835938 7.191406 20.328125 9.609375 C 17.828125 12.035156 14.332031 13.25 9.84375 13.25 C 7.101562 13.25 4.679688 12.867188 2.578125 12.109375 L 2.578125 4.609375 L 7.625 4.609375 C 10.78125 4.609375 12.65625 3.070312 13.25 0 L 0 -33.296875 L 13.5 -33.296875 L 19.859375 -11.15625 L 20.3125 -11.15625 L 26.171875 -33.296875 L 38.53125 -33.296875 Z M 26.671875 -1.015625 "/></g></g></g><g clip-path="url(#6bf0ef93d7)"><g clip-path="url(#7773a92737)"><g clip-path="url(#c3b76b394e)"><path fill="#ffffff" d="M 232.988281 207.105469 C 233.589844 207.171875 234.167969 207.292969 234.796875 207.21875 C 235.375 207.148438 235.953125 207.015625 236.539062 207.007812 C 236.53125 206.980469 236.515625 206.960938 236.5 206.941406 C 236.753906 206.660156 237 206.539062 237.414062 206.738281 C 237.792969 206.921875 238.253906 206.917969 238.683594 206.800781 C 239.644531 206.667969 240.582031 206.320312 241.574219 206.429688 C 241.621094 206.378906 241.664062 206.328125 241.710938 206.277344 C 241.710938 206.261719 241.710938 206.242188 241.707031 206.226562 C 241.714844 206.222656 241.722656 206.21875 241.730469 206.214844 C 242.53125 206.074219 243.347656 206.070312 244.148438 205.960938 C 244.632812 205.894531 245.175781 205.804688 245.539062 205.371094 C 245.605469 205.339844 245.648438 205.265625 245.601562 205.21875 C 245.261719 204.894531 245.074219 204.484375 244.894531 204.070312 C 244.816406 203.894531 244.632812 203.851562 244.480469 203.886719 C 244.113281 203.972656 243.742188 203.875 243.375 203.929688 C 243.34375 203.921875 243.308594 203.910156 243.273438 203.902344 C 242.761719 203.996094 242.269531 204.214844 241.726562 204.136719 C 241.585938 204.117188 241.445312 204.121094 241.300781 204.171875 C 240.5625 204.433594 239.773438 204.425781 239.011719 204.578125 C 238.359375 204.707031 237.699219 204.789062 237.09375 205.089844 C 237.035156 205.0625 237 205.09375 236.972656 205.140625 C 236.9375 205.414062 236.828125 205.65625 236.535156 205.707031 C 236.226562 205.761719 236.230469 205.492188 236.152344 205.308594 C 236.207031 205.292969 236.257812 205.269531 236.300781 205.226562 C 235.992188 205.007812 235.664062 205.054688 235.34375 205.171875 C 234.863281 205.339844 234.382812 205.5 233.886719 205.605469 C 233.515625 205.6875 233.152344 205.820312 232.804688 205.976562 C 232.507812 206.105469 232.273438 206.40625 232.304688 206.6875 C 232.339844 206.960938 232.675781 207.074219 232.988281 207.105469 Z M 232.988281 207.105469 " fill-opacity="1" fill-rule="nonzero"/></g></g></g><g clip-path="url(#d251ad474d)"><g clip-path="url(#72c8793a87)"><g clip-path="url(#a7fc72ded0)"><path fill="#ffffff" d="M 266.171875 230.886719 C 265.949219 230.847656 265.722656 230.855469 265.496094 230.84375 C 264.710938 230.863281 263.972656 230.597656 263.210938 230.46875 C 262.949219 230.425781 262.765625 230.359375 262.578125 230.566406 C 262.246094 230.8125 262.035156 230.609375 261.835938 230.363281 C 261.738281 230.285156 261.664062 230.160156 261.519531 230.164062 C 260.65625 230.179688 259.804688 229.960938 258.9375 230.035156 C 258.398438 230.183594 257.859375 230.054688 257.320312 230.058594 C 256.457031 230.066406 255.597656 229.902344 254.734375 229.996094 C 254.746094 230.019531 254.761719 230.039062 254.777344 230.054688 C 254.773438 230.054688 254.773438 230.054688 254.773438 230.054688 C 254.761719 230.035156 254.746094 230.015625 254.734375 229.996094 C 254.40625 230.097656 254.078125 230.109375 253.738281 230.089844 C 253.453125 230.070312 253.164062 230 252.878906 230.101562 C 252.242188 230.273438 251.5625 230.167969 250.941406 230.421875 C 250.914062 230.425781 250.890625 230.429688 250.863281 230.433594 C 250.617188 230.523438 250.359375 230.472656 250.109375 230.492188 C 249.40625 230.554688 248.691406 230.542969 248.007812 230.769531 C 247.359375 230.851562 246.710938 230.949219 246.0625 231.007812 C 245.578125 231.050781 245.21875 231.492188 244.691406 231.394531 C 243.925781 231.25 243.238281 231.617188 242.523438 231.785156 C 242.382812 231.921875 242.210938 231.953125 242.03125 231.925781 C 241.371094 231.820312 240.757812 231.988281 240.160156 232.238281 C 240.035156 232.179688 239.945312 232.226562 239.867188 232.324219 C 239.703125 232.410156 239.558594 232.515625 239.351562 232.507812 C 239.191406 232.5 238.988281 232.511719 238.964844 232.753906 C 238.671875 232.914062 238.394531 232.425781 238.097656 232.734375 C 237.992188 232.78125 237.882812 232.828125 237.773438 232.875 C 237.324219 232.796875 236.890625 232.847656 236.464844 233.019531 C 235.992188 233.207031 235.519531 233.382812 235.042969 233.566406 C 234.808594 233.636719 234.640625 233.8125 234.484375 233.988281 C 234.257812 234.242188 234.359375 234.558594 234.6875 234.703125 C 235.152344 235.085938 235.640625 235.285156 236.242188 235.007812 C 236.390625 234.9375 236.597656 234.960938 236.769531 234.984375 C 237.175781 235.042969 237.574219 235.042969 237.953125 234.867188 C 238.472656 234.628906 239.085938 234.6875 239.578125 234.367188 C 239.582031 234.332031 239.582031 234.292969 239.582031 234.257812 C 239.792969 234.25 239.996094 234.210938 240.175781 234.09375 C 240.640625 234.101562 241.121094 234.171875 241.574219 234.105469 C 242.40625 233.976562 243.210938 233.695312 244.070312 233.667969 C 244.503906 233.652344 244.9375 233.46875 245.335938 233.25 C 245.507812 233.152344 245.476562 233.085938 245.367188 232.984375 C 245.324219 232.816406 245.332031 232.652344 245.417969 232.472656 C 245.535156 232.621094 245.5 232.820312 245.675781 232.890625 C 245.785156 233.007812 245.792969 233.25 246.042969 233.1875 C 246.042969 233.183594 246.042969 233.183594 246.042969 233.183594 C 246.535156 233.339844 246.957031 233.035156 247.417969 232.976562 C 247.378906 233.035156 247.339844 233.09375 247.300781 233.152344 C 247.664062 233.03125 248.042969 233.125 248.410156 233.050781 C 248.394531 233.035156 248.378906 233.015625 248.367188 232.996094 C 248.367188 232.996094 248.367188 232.996094 248.371094 232.992188 C 248.382812 233.011719 248.394531 233.03125 248.410156 233.050781 C 249.246094 232.910156 250.085938 232.832031 250.933594 232.800781 C 251.183594 232.792969 251.4375 232.832031 251.699219 232.796875 C 252.847656 232.644531 253.984375 232.367188 255.164062 232.449219 C 255.476562 232.472656 255.800781 232.554688 256.117188 232.433594 C 256.753906 232.289062 257.445312 232.316406 258.042969 232.121094 C 258.789062 231.882812 259.515625 232.078125 260.25 231.945312 C 260.816406 231.84375 261.40625 231.691406 262.007812 231.777344 C 262.195312 231.804688 262.363281 231.648438 262.472656 231.476562 C 262.566406 231.449219 262.660156 231.421875 262.753906 231.480469 C 262.914062 231.8125 263.238281 231.726562 263.480469 231.699219 C 264.363281 231.589844 265.234375 231.390625 266.132812 231.425781 C 266.261719 231.433594 266.445312 231.390625 266.4375 231.191406 C 266.433594 231.03125 266.316406 230.914062 266.171875 230.886719 Z M 246.667969 230.992188 C 246.914062 230.953125 247.171875 230.9375 247.429688 230.914062 C 247.175781 230.949219 246.921875 230.972656 246.667969 230.992188 Z M 245.074219 231.433594 C 245.167969 231.425781 245.261719 231.410156 245.355469 231.390625 C 245.261719 231.425781 245.171875 231.441406 245.074219 231.433594 Z M 248.488281 230.777344 Z M 237.972656 233.015625 C 237.972656 233.015625 237.972656 233.019531 237.972656 233.019531 C 237.972656 233.015625 237.972656 233.015625 237.972656 233.015625 Z M 238.355469 233.320312 C 238.363281 233.324219 238.371094 233.328125 238.378906 233.332031 C 238.375 233.332031 238.371094 233.332031 238.367188 233.335938 C 238.363281 233.328125 238.359375 233.324219 238.355469 233.320312 Z M 239.546875 232.882812 C 239.546875 232.882812 239.542969 232.882812 239.542969 232.882812 C 239.542969 232.878906 239.546875 232.878906 239.546875 232.875 C 239.546875 232.878906 239.546875 232.882812 239.546875 232.882812 Z M 239.003906 234.125 C 239.003906 234.128906 239.003906 234.128906 239.003906 234.128906 C 239.003906 234.128906 239.003906 234.128906 239.003906 234.125 Z M 240.164062 232.332031 C 240.160156 232.332031 240.15625 232.332031 240.152344 232.332031 C 240.152344 232.332031 240.15625 232.335938 240.15625 232.335938 C 240.15625 232.335938 240.152344 232.335938 240.152344 232.335938 C 240.152344 232.335938 240.152344 232.332031 240.152344 232.332031 C 240.152344 232.324219 240.152344 232.3125 240.152344 232.304688 C 240.15625 232.3125 240.160156 232.324219 240.164062 232.332031 Z M 240.164062 232.332031 " fill-opacity="1" fill-rule="nonzero"/></g></g></g><g clip-path="url(#035b0d457a)"><g clip-path="url(#4611e66200)"><g clip-path="url(#5892c5a7aa)"><path fill="#ffffff" d="M 267.367188 231.007812 C 267.171875 230.847656 266.914062 230.855469 266.683594 230.953125 C 266.5625 231.003906 266.542969 231.125 266.597656 231.246094 C 266.730469 231.519531 266.988281 231.492188 267.285156 231.507812 C 267.417969 231.464844 267.707031 231.628906 267.773438 231.347656 C 267.832031 231.097656 267.507812 231.121094 267.367188 231.007812 Z M 267.367188 231.007812 " fill-opacity="1" fill-rule="nonzero"/></g></g></g><g clip-path="url(#b7be672a22)"><g clip-path="url(#8ed32b5563)"><g clip-path="url(#6cb1554c65)"><path fill="#ffffff" d="M 214.53125 219.335938 C 214.351562 219.25 214.210938 219.128906 214.089844 218.972656 C 214.054688 218.929688 213.941406 218.921875 213.867188 218.933594 C 213.800781 218.941406 213.753906 219.03125 213.808594 219.078125 C 213.953125 219.203125 213.863281 219.480469 214.109375 219.535156 C 214.191406 219.664062 214.300781 219.738281 214.453125 219.75 C 214.617188 219.765625 214.796875 219.773438 214.835938 219.574219 C 214.882812 219.335938 214.6875 219.34375 214.53125 219.335938 Z M 214.53125 219.335938 " fill-opacity="1" fill-rule="nonzero"/></g></g></g><g clip-path="url(#f185b2cbef)"><g clip-path="url(#3ea083f7e8)"><g clip-path="url(#1e05aeebc7)"><path fill="#ffffff" d="M 297.621094 219.667969 C 297.3125 219.398438 296.925781 219.566406 296.578125 219.5 C 296.425781 219.46875 296.21875 219.546875 296.132812 219.390625 C 295.820312 218.820312 295.160156 218.632812 294.789062 218.132812 C 295.34375 217.777344 295.34375 217.777344 294.78125 217.367188 C 294.742188 217.339844 294.695312 217.320312 294.660156 217.289062 C 294.226562 216.898438 294.296875 216.6875 294.800781 216.371094 C 295.085938 216.195312 295.460938 216.363281 295.683594 216.0625 C 295.832031 216.109375 295.980469 216.082031 296.089844 215.980469 C 296.367188 215.71875 296.648438 215.46875 297.117188 215.496094 C 296.894531 215.140625 296.554688 215.078125 296.300781 214.90625 C 296.15625 214.808594 295.988281 214.734375 296.101562 214.542969 C 296.296875 214.210938 296.0625 214.019531 295.871094 213.839844 C 295.625 213.601562 295.398438 213.355469 295.191406 213.089844 C 294.738281 212.503906 293.796875 212.292969 293.128906 212.628906 C 292.722656 212.691406 292.597656 212.246094 292.65625 212.132812 C 292.890625 211.648438 292.523438 211.414062 292.339844 211.097656 C 292.324219 211.117188 292.304688 211.132812 292.289062 211.148438 C 292.289062 211.148438 292.285156 211.148438 292.285156 211.144531 C 292.285156 211.144531 292.289062 211.144531 292.289062 211.148438 C 292.308594 211.128906 292.324219 211.113281 292.339844 211.097656 C 292.246094 210.753906 291.945312 210.574219 291.667969 210.542969 C 290.535156 210.40625 289.714844 209.476562 288.585938 209.351562 C 288.507812 209.34375 288.429688 209.242188 288.367188 209.171875 C 288.070312 208.851562 287.941406 208.949219 287.921875 209.339844 C 287.867188 209.382812 287.8125 209.421875 287.757812 209.464844 C 287.5 209.460938 287.226562 209.160156 286.996094 209.433594 C 286.851562 209.605469 286.664062 209.660156 286.488281 209.746094 C 286.472656 209.746094 286.457031 209.753906 286.441406 209.765625 C 285.910156 210.03125 285.511719 209.566406 285.039062 209.5 C 284.617188 209.4375 284.417969 208.980469 284.039062 208.894531 C 283.699219 208.816406 283.394531 208.710938 283.128906 208.488281 C 282.9375 208.328125 282.746094 208.28125 282.507812 208.394531 C 282.105469 208.59375 281.625 208.566406 281.289062 208.398438 C 280.890625 208.199219 280.746094 208.359375 280.542969 208.601562 C 280.488281 208.667969 280.460938 208.792969 280.324219 208.730469 C 280.222656 208.417969 280.265625 208.292969 280.648438 208.164062 C 281.101562 208.015625 281.554688 208.210938 281.976562 208.015625 C 282.125 207.890625 282.308594 207.933594 282.480469 207.914062 C 282.941406 207.863281 283.398438 207.804688 283.855469 207.75 C 283.941406 207.746094 284.03125 207.734375 284.121094 207.714844 C 284.648438 207.621094 285.175781 207.671875 285.707031 207.683594 C 285.988281 207.691406 286.28125 207.800781 286.558594 207.644531 C 286.621094 207.613281 286.683594 207.578125 286.746094 207.542969 C 286.902344 207.582031 287.058594 207.617188 287.210938 207.660156 C 287.367188 207.707031 287.585938 207.679688 287.578125 207.550781 C 287.558594 207.160156 287.851562 207.226562 288.054688 207.152344 C 288.042969 207.132812 288.027344 207.113281 288.015625 207.09375 C 288.015625 207.09375 288.015625 207.09375 288.019531 207.09375 C 288.03125 207.113281 288.042969 207.132812 288.054688 207.152344 C 289.078125 206.921875 290.109375 206.746094 291.160156 206.777344 C 291.75 206.894531 292.34375 206.710938 292.933594 206.820312 C 293.265625 206.882812 293.605469 206.898438 293.941406 206.921875 C 294.070312 206.929688 294.222656 206.917969 294.238281 206.75 C 294.253906 206.578125 294.101562 206.554688 293.972656 206.539062 C 293.730469 206.511719 293.464844 206.546875 293.257812 206.453125 C 292.261719 206.003906 291.160156 206.070312 290.128906 205.785156 C 289.769531 205.683594 289.351562 205.792969 289.074219 205.4375 C 288.910156 205.386719 288.71875 205.367188 288.582031 205.277344 C 288.210938 205.03125 287.820312 204.894531 287.371094 204.941406 C 287.28125 204.816406 287.164062 204.738281 287.007812 204.734375 C 286.585938 204.726562 286.234375 204.472656 285.828125 204.40625 C 285.308594 204.09375 284.683594 204.230469 284.132812 203.988281 C 283.714844 203.804688 283.230469 203.777344 282.785156 203.671875 C 282.195312 203.527344 281.652344 203.25 281.050781 203.613281 C 280.964844 203.667969 280.828125 203.613281 280.714844 203.617188 C 280.3125 203.628906 279.90625 203.429688 279.535156 203.472656 C 278.980469 203.535156 278.4375 203.480469 277.894531 203.476562 C 277.71875 203.476562 277.542969 203.445312 277.390625 203.582031 C 277.003906 203.921875 276.507812 203.875 276.046875 203.957031 C 275.984375 203.929688 275.921875 203.910156 275.859375 203.890625 C 275.773438 203.820312 275.667969 203.808594 275.558594 203.804688 C 275.503906 203.785156 275.449219 203.765625 275.398438 203.738281 C 275.355469 203.714844 275.304688 203.703125 275.253906 203.695312 C 275.21875 203.699219 275.1875 203.703125 275.152344 203.703125 C 274.691406 203.550781 274.195312 203.621094 273.726562 203.519531 C 273.683594 203.558594 273.636719 203.578125 273.59375 203.589844 C 273.542969 203.59375 273.496094 203.597656 273.449219 203.605469 C 273.347656 203.601562 273.242188 203.578125 273.140625 203.59375 C 272.59375 203.613281 272.039062 203.421875 271.492188 203.613281 C 271.226562 203.660156 270.960938 203.703125 270.695312 203.75 C 270.96875 203.761719 271.269531 203.917969 271.492188 203.617188 C 271.546875 203.625 271.605469 203.632812 271.660156 203.640625 C 271.664062 203.664062 271.664062 203.691406 271.664062 203.71875 C 271.476562 203.867188 271.265625 203.902344 271.027344 203.886719 C 270.277344 203.847656 269.523438 203.761719 268.78125 203.816406 C 268.453125 203.839844 268.082031 203.640625 267.773438 203.914062 C 267.710938 203.851562 267.628906 203.835938 267.554688 203.867188 C 267.21875 204.003906 266.902344 203.953125 266.59375 203.8125 C 266.601562 203.808594 266.605469 203.808594 266.613281 203.804688 C 266.589844 203.800781 266.5625 203.792969 266.539062 203.785156 C 266.523438 203.777344 266.507812 203.773438 266.492188 203.761719 C 266.472656 203.757812 266.449219 203.753906 266.429688 203.75 C 266.175781 203.648438 265.921875 203.492188 265.640625 203.742188 C 265.652344 203.75 265.664062 203.757812 265.671875 203.765625 C 265.46875 203.835938 265.269531 203.921875 265.050781 203.941406 C 264.957031 203.945312 264.863281 203.949219 264.769531 203.957031 C 264.726562 203.964844 264.679688 203.972656 264.636719 203.984375 C 264.167969 204.203125 263.71875 203.992188 263.261719 203.921875 C 263.257812 203.921875 263.253906 203.921875 263.25 203.921875 C 263.269531 203.910156 263.285156 203.898438 263.300781 203.886719 C 263.304688 203.859375 263.308594 203.835938 263.3125 203.808594 C 263.234375 203.796875 263.160156 203.773438 263.121094 203.699219 C 263.15625 203.695312 263.191406 203.691406 263.226562 203.683594 C 263.609375 203.539062 263.992188 203.621094 264.378906 203.675781 C 264.558594 203.683594 264.726562 203.632812 264.894531 203.589844 C 265.066406 203.535156 265.222656 203.453125 265.386719 203.386719 C 266.332031 203.347656 267.292969 203.542969 268.214844 203.1875 C 268.214844 203.195312 268.210938 203.203125 268.214844 203.214844 C 268.242188 203.226562 268.269531 203.238281 268.296875 203.25 C 268.457031 203.199219 268.640625 203.34375 268.789062 203.191406 C 268.789062 203.191406 268.789062 203.195312 268.789062 203.195312 C 268.796875 203.1875 268.808594 203.179688 268.820312 203.175781 C 269.058594 203.277344 269.308594 203.191406 269.492188 203.097656 C 269.757812 202.960938 269.949219 202.996094 270.160156 203.140625 C 270.335938 203.183594 270.492188 203.171875 270.664062 203.082031 C 271.042969 202.886719 271.542969 202.769531 271.859375 202.90625 C 272.402344 203.148438 272.867188 202.855469 273.363281 202.917969 C 273.386719 202.882812 273.390625 202.847656 273.375 202.816406 C 273.5 202.800781 273.621094 202.777344 273.742188 202.765625 C 273.902344 202.753906 274.097656 202.773438 274.140625 202.582031 C 274.179688 202.402344 273.976562 202.339844 273.859375 202.304688 C 273.136719 202.09375 272.476562 201.628906 271.667969 201.765625 C 271.226562 202.046875 270.800781 202.253906 270.472656 201.609375 C 270.378906 201.429688 270.207031 201.394531 270.023438 201.488281 C 269.792969 201.753906 269.355469 201.585938 269.144531 201.90625 C 269.109375 201.957031 268.96875 201.910156 268.957031 201.816406 C 268.902344 201.511719 268.671875 201.539062 268.46875 201.558594 C 267.789062 201.621094 267.113281 201.515625 266.4375 201.496094 C 266.082031 201.484375 265.726562 201.453125 265.382812 201.578125 C 265.378906 201.578125 265.375 201.582031 265.371094 201.582031 C 265.371094 201.578125 265.375 201.574219 265.375 201.570312 C 265.335938 201.515625 265.285156 201.503906 265.222656 201.53125 C 264.546875 201.507812 263.863281 201.363281 263.199219 201.488281 C 262.574219 201.609375 261.941406 201.6875 261.316406 201.703125 C 260.644531 201.71875 259.972656 201.808594 259.316406 201.875 C 258.363281 201.972656 257.398438 202.054688 256.453125 202.257812 C 255.371094 202.488281 254.257812 202.457031 253.160156 202.527344 C 253.140625 202.558594 253.136719 202.589844 253.144531 202.617188 C 252.855469 202.878906 252.5 202.714844 252.175781 202.773438 C 251.777344 202.976562 251.273438 202.785156 250.90625 203.113281 C 250.710938 203.296875 250.613281 203.5625 250.347656 203.6875 C 249.953125 203.875 249.839844 203.832031 249.785156 203.410156 C 249.777344 203.34375 249.765625 203.285156 249.726562 203.234375 C 249.597656 203.226562 249.464844 203.21875 249.335938 203.210938 C 249.066406 203.132812 248.8125 203.207031 248.554688 203.28125 C 248.554688 203.246094 248.554688 203.214844 248.558594 203.179688 C 248.121094 203.117188 247.699219 203.324219 247.292969 203.300781 C 246.476562 203.261719 245.941406 203.527344 245.699219 204.324219 C 245.90625 204.332031 245.964844 204.191406 245.992188 204.027344 C 246.015625 203.898438 246.039062 203.773438 246.199219 203.75 C 245.925781 204.519531 246.300781 205.023438 246.894531 205.4375 C 246.894531 205.46875 246.894531 205.5 246.890625 205.535156 C 246.90625 205.550781 246.921875 205.570312 246.933594 205.585938 C 247.0625 205.644531 247.203125 205.679688 247.335938 205.726562 C 247.175781 205.699219 247.019531 205.699219 246.871094 205.722656 C 246.890625 205.683594 246.898438 205.625 246.886719 205.535156 L 246.890625 205.535156 C 246.832031 205.523438 246.773438 205.515625 246.714844 205.503906 C 246.671875 205.574219 246.628906 205.640625 246.589844 205.707031 C 246.628906 205.734375 246.664062 205.75 246.699219 205.765625 C 246.558594 205.808594 246.421875 205.882812 246.292969 205.984375 C 246.132812 205.980469 245.980469 205.988281 245.898438 206.148438 C 245.871094 206.125 245.839844 206.101562 245.8125 206.082031 C 245.675781 206.023438 245.53125 206.023438 245.386719 206.058594 C 244.6875 206.226562 244.03125 206.535156 243.332031 206.699219 C 242.957031 206.785156 242.617188 207.078125 242.253906 207.027344 C 241.9375 206.984375 241.675781 206.964844 241.355469 207.046875 C 241.128906 207.101562 240.898438 207.136719 240.667969 207.164062 C 240.71875 207.128906 240.765625 207.085938 240.808594 207.03125 C 240.796875 207.003906 240.78125 206.980469 240.769531 206.957031 C 240.515625 206.988281 240.265625 207.019531 240.015625 207.054688 C 240.011719 207.082031 240.007812 207.113281 240.003906 207.140625 C 240.050781 207.175781 240.097656 207.203125 240.140625 207.222656 C 239.46875 207.296875 238.804688 207.394531 238.222656 207.847656 C 238.074219 207.960938 237.84375 207.859375 237.652344 207.859375 C 237.382812 207.855469 237.117188 207.875 236.855469 207.914062 C 236.875 207.875 236.886719 207.832031 236.886719 207.789062 C 236.816406 207.78125 236.75 207.773438 236.679688 207.769531 C 236.332031 207.957031 235.871094 207.730469 235.5625 208.070312 C 234.890625 208.167969 234.292969 208.582031 233.648438 208.640625 C 232.984375 208.699219 232.417969 208.929688 231.832031 209.160156 C 231.539062 209.449219 231.152344 209.273438 230.828125 209.371094 C 229.371094 209.8125 227.882812 210.183594 226.507812 210.882812 C 225.996094 210.84375 225.535156 210.984375 225.121094 211.28125 C 225.183594 211.285156 225.25 211.289062 225.316406 211.296875 C 225.085938 211.59375 224.785156 211.882812 225.160156 212.277344 C 225.203125 212.515625 225.195312 212.53125 224.863281 212.703125 C 224.855469 212.71875 224.847656 212.738281 224.835938 212.753906 C 224.445312 212.984375 224.210938 212.59375 223.898438 212.5 C 223.871094 212.492188 223.839844 212.488281 223.808594 212.488281 C 223.75 212.40625 223.667969 212.335938 223.574219 212.363281 C 223.539062 212.371094 223.53125 212.476562 223.515625 212.550781 C 223.503906 212.550781 223.496094 212.550781 223.488281 212.550781 C 223.484375 212.550781 223.484375 212.550781 223.484375 212.550781 C 223.472656 212.542969 223.460938 212.539062 223.445312 212.539062 C 223.554688 212.371094 223.535156 212.171875 223.554688 211.980469 C 223.515625 211.953125 223.472656 211.945312 223.425781 211.964844 C 222.960938 212.136719 222.492188 212.308594 222.027344 212.480469 C 221.410156 212.765625 220.78125 213.035156 220.257812 213.488281 C 219.855469 213.628906 219.792969 214.199219 219.28125 214.25 C 219.714844 214.234375 220.113281 214.101562 220.519531 214.03125 C 220.527344 214.035156 220.535156 214.03125 220.539062 214.035156 C 220.550781 214.03125 220.558594 214.027344 220.570312 214.023438 C 220.648438 214.011719 220.730469 214 220.8125 213.996094 C 221 213.867188 221.234375 213.957031 221.425781 213.863281 C 221.414062 213.839844 221.398438 213.820312 221.382812 213.800781 C 221.398438 213.820312 221.414062 213.839844 221.425781 213.863281 C 221.496094 213.894531 221.484375 213.945312 221.46875 214.003906 C 221.316406 214.105469 221.160156 214.207031 221.003906 214.308594 C 220.8125 214.292969 220.570312 214.195312 220.441406 214.332031 C 220.089844 214.714844 219.636719 214.808594 219.167969 214.898438 C 218.816406 214.964844 218.625 215.332031 218.332031 215.4375 C 217.066406 215.886719 216.199219 217.003906 214.921875 217.421875 C 214.742188 217.527344 214.5625 217.632812 214.390625 217.742188 C 214.066406 217.949219 214.019531 218.570312 214.351562 218.710938 C 214.691406 218.855469 215.015625 219.207031 215.460938 218.914062 C 215.546875 218.855469 215.714844 218.878906 215.835938 218.910156 C 216.464844 219.066406 217.027344 218.902344 217.570312 218.59375 C 218.054688 218.390625 218.539062 218.1875 219.03125 217.996094 C 220.003906 217.617188 221.023438 217.410156 222.058594 217.386719 C 222.800781 217.367188 223.535156 217.351562 224.304688 217.253906 C 223.863281 217.535156 223.566406 217.949219 223.203125 218.300781 C 222.882812 218.609375 222.433594 218.707031 222.132812 219.03125 C 222.070312 219.101562 221.933594 219.070312 221.910156 219.195312 C 221.566406 219.597656 221.367188 220.121094 220.886719 220.40625 C 220.828125 220.410156 220.765625 220.414062 220.707031 220.417969 C 220.257812 220.652344 220.25 221.175781 219.992188 221.535156 C 219.613281 222.074219 219.476562 222.8125 218.738281 223.050781 C 218.523438 223.289062 218.230469 223.425781 218.015625 223.671875 C 217.765625 223.957031 217.839844 224.148438 218.097656 224.339844 C 218.519531 224.660156 218.519531 224.660156 218.015625 224.878906 C 217.914062 224.921875 217.808594 224.960938 217.707031 225 C 217.238281 225.148438 216.910156 225.457031 216.753906 225.910156 C 216.652344 226.199219 216.550781 226.484375 216.492188 226.796875 C 216.398438 227.300781 216.710938 228.335938 217.175781 228.617188 C 217.273438 228.753906 217.378906 228.878906 217.546875 228.933594 C 217.863281 229.175781 218.03125 228.851562 218.257812 228.75 C 218.765625 228.597656 219.339844 228.605469 219.746094 228.175781 C 219.855469 228.0625 220.003906 228.074219 220.148438 228.066406 C 221.136719 227.992188 222.128906 227.980469 223.097656 227.738281 C 223.328125 227.53125 223.628906 227.910156 223.816406 227.683594 C 224.003906 227.457031 224.046875 227.601562 224.144531 227.730469 C 224.214844 227.820312 224.308594 227.886719 224.4375 227.871094 C 224.707031 228.074219 224.996094 228.472656 225.335938 228.109375 C 225.84375 227.566406 226.492188 227.742188 227.03125 227.792969 C 227.609375 227.851562 228.246094 228.054688 228.664062 228.582031 C 229.160156 228.738281 229.640625 228.933594 230.183594 228.945312 C 230.683594 228.957031 231.171875 228.847656 231.65625 228.839844 C 232.289062 228.832031 232.894531 228.691406 233.507812 228.621094 C 233.609375 228.609375 233.6875 228.550781 233.742188 228.679688 C 233.796875 228.800781 233.773438 228.878906 233.667969 228.972656 C 233.402344 229.207031 233.101562 229.378906 232.785156 229.53125 C 232.625 229.667969 232.433594 229.835938 232.53125 230.042969 C 232.628906 230.25 232.84375 230.066406 233.007812 230.058594 C 233.359375 230.039062 233.707031 230.054688 234.039062 230.191406 C 234.363281 230.238281 234.699219 230.261719 234.75 230.699219 C 234.757812 230.761719 234.832031 230.789062 234.902344 230.777344 C 234.921875 230.796875 234.945312 230.804688 234.972656 230.804688 C 235.378906 230.835938 235.722656 230.65625 236.070312 230.492188 C 236.132812 230.492188 236.195312 230.492188 236.253906 230.488281 C 236.433594 230.527344 236.539062 230.367188 236.695312 230.335938 C 237.261719 230.117188 237.847656 229.980469 238.460938 229.976562 C 238.527344 229.976562 238.59375 229.894531 238.660156 229.851562 C 238.886719 229.902344 238.972656 229.773438 239.03125 229.582031 C 239.070312 229.460938 239.167969 229.320312 239.3125 229.390625 C 239.746094 229.609375 240.105469 229.316406 240.5 229.246094 C 241.046875 229.257812 241.566406 229.136719 242.066406 228.921875 C 242.585938 228.859375 243.117188 228.839844 243.625 228.726562 C 243.960938 228.648438 244.296875 228.878906 244.609375 228.660156 C 245.085938 228.699219 245.433594 228.328125 245.886719 228.265625 C 246.65625 228.15625 247.445312 228.171875 248.183594 227.863281 C 248.375 227.785156 248.578125 227.695312 248.777344 227.695312 C 249.945312 227.699219 251.097656 227.511719 252.25 227.378906 C 252.484375 227.457031 252.695312 227.414062 252.886719 227.265625 C 253.148438 227.0625 253.449219 227.078125 253.761719 227.089844 C 254.648438 227.121094 255.539062 227.320312 256.425781 227.058594 C 256.5 227.035156 256.601562 227.109375 256.691406 227.136719 C 257.304688 227.335938 257.914062 227.324219 258.523438 227.109375 C 259.046875 227.148438 259.578125 227.234375 260.078125 226.96875 C 260.257812 226.871094 260.445312 226.929688 260.640625 226.949219 C 261.347656 227.027344 262.058594 227.160156 262.773438 226.945312 C 263.027344 226.871094 263.300781 226.855469 263.582031 226.9375 C 263.867188 227.023438 264.160156 226.996094 264.472656 226.890625 C 265.417969 226.5625 266.390625 226.660156 267.355469 226.832031 C 267.390625 226.984375 267.503906 227.035156 267.640625 227.046875 C 268.597656 227.121094 269.546875 227.191406 270.503906 227.34375 C 271.644531 227.527344 272.839844 227.4375 273.976562 227.671875 C 274.890625 227.859375 275.820312 227.765625 276.742188 228.023438 C 277.597656 228.261719 278.546875 228.21875 279.445312 228.382812 C 280.015625 228.484375 280.609375 228.453125 281.191406 228.480469 C 282.332031 228.539062 283.46875 228.558594 284.59375 228.820312 C 285.160156 228.953125 285.761719 228.847656 286.382812 229.035156 C 286.304688 228.78125 286.207031 228.664062 286.058594 228.59375 C 285.414062 228.246094 284.65625 228.316406 284.003906 228.019531 C 283.726562 227.894531 283.4375 227.6875 283.140625 227.832031 C 282.914062 227.941406 282.78125 227.855469 282.617188 227.765625 C 282.421875 227.660156 282.238281 227.503906 282.027344 227.449219 C 281.667969 227.359375 281.335938 227.042969 280.957031 227.183594 C 280.761719 227.257812 280.621094 227.183594 280.457031 227.183594 C 279.816406 227.039062 279.203125 226.761719 278.523438 226.800781 C 278.363281 226.675781 278.15625 226.597656 277.980469 226.671875 C 277.605469 226.828125 277.355469 226.644531 277.097656 226.425781 C 276.710938 226.054688 276.25 226.148438 275.816406 226.261719 C 275.511719 226.339844 275.371094 226.296875 275.371094 225.972656 C 276.058594 225.917969 276.738281 225.808594 277.433594 225.847656 C 277.488281 225.847656 277.550781 225.800781 277.609375 225.773438 C 278.261719 225.902344 278.925781 225.691406 279.578125 225.804688 C 279.757812 225.746094 279.84375 225.617188 279.933594 225.414062 C 279.714844 225.402344 279.542969 225.394531 279.371094 225.386719 C 279.316406 225.386719 279.257812 225.382812 279.203125 225.382812 C 279.105469 225.429688 279.007812 225.476562 278.910156 225.523438 C 278.796875 225.46875 278.6875 225.414062 278.574219 225.359375 C 279.242188 225.285156 279.808594 224.882812 280.46875 224.9375 C 280.636719 224.863281 280.800781 224.789062 280.96875 224.714844 C 281.332031 224.617188 281.648438 224.992188 282.019531 224.816406 C 282.023438 224.785156 282.035156 224.761719 282.058594 224.738281 C 282.308594 224.691406 282.609375 224.917969 282.808594 224.601562 C 282.542969 224.4375 282.253906 224.496094 281.96875 224.519531 C 281.96875 224.515625 281.96875 224.515625 281.96875 224.511719 C 281.976562 224.484375 281.964844 224.460938 281.933594 224.441406 C 281.875 224.402344 281.820312 224.367188 281.761719 224.332031 C 281.542969 224.15625 281.316406 224.144531 281.082031 224.300781 C 281.046875 224.328125 281.015625 224.355469 280.980469 224.382812 C 280.78125 224.378906 280.582031 224.371094 280.382812 224.363281 C 280.382812 224.363281 280.382812 224.363281 280.378906 224.363281 C 280.351562 224.34375 280.324219 224.324219 280.296875 224.304688 C 279.980469 224.0625 279.554688 224.253906 279.230469 224.035156 C 279.132812 223.976562 279.03125 223.921875 278.910156 223.925781 C 278.738281 223.949219 278.570312 223.972656 278.410156 223.90625 C 278.34375 223.886719 278.28125 223.875 278.214844 223.878906 C 278.171875 223.886719 278.128906 223.902344 278.09375 223.925781 C 278.089844 223.925781 278.085938 223.925781 278.082031 223.933594 C 277.855469 223.894531 277.617188 223.941406 277.402344 223.839844 C 277.347656 223.808594 277.292969 223.78125 277.238281 223.757812 C 277.242188 223.738281 277.238281 223.714844 277.226562 223.695312 C 277.195312 223.664062 277.160156 223.640625 277.117188 223.621094 C 277.113281 223.621094 277.109375 223.621094 277.105469 223.617188 C 277.089844 223.539062 277.09375 223.480469 277.121094 223.4375 C 277.175781 223.402344 277.234375 223.375 277.292969 223.347656 C 277.335938 223.339844 277.382812 223.339844 277.4375 223.339844 C 277.4375 223.335938 277.4375 223.328125 277.4375 223.320312 C 277.453125 223.332031 277.464844 223.339844 277.476562 223.347656 C 277.707031 223.492188 277.96875 223.503906 278.226562 223.503906 C 278.519531 223.503906 278.832031 223.535156 279.070312 223.671875 C 279.421875 223.875 279.726562 223.953125 280.101562 223.746094 C 280.265625 223.652344 280.503906 223.671875 280.652344 223.808594 C 280.867188 224 281.109375 223.992188 281.332031 223.925781 C 281.675781 223.828125 281.957031 223.910156 282.25 224.066406 C 282.492188 224.195312 282.78125 224.316406 283.03125 224.191406 C 283.105469 224.15625 283.175781 224.136719 283.242188 224.125 C 283.199219 224.160156 283.15625 224.207031 283.113281 224.277344 C 283.128906 224.292969 283.140625 224.308594 283.152344 224.328125 C 283.269531 224.328125 283.390625 224.328125 283.507812 224.328125 C 283.503906 224.410156 283.5 224.496094 283.5 224.578125 C 283.429688 224.605469 283.300781 224.601562 283.328125 224.699219 C 283.386719 224.890625 283.5625 224.796875 283.691406 224.8125 C 283.867188 224.851562 284.070312 224.949219 284.082031 224.632812 C 284.085938 224.601562 284.085938 224.570312 284.089844 224.539062 C 284.183594 224.542969 284.273438 224.550781 284.367188 224.558594 C 284.351562 224.640625 284.238281 224.726562 284.347656 224.808594 C 284.414062 224.859375 284.503906 224.847656 284.5625 224.785156 C 284.671875 224.671875 284.496094 224.640625 284.484375 224.558594 C 284.488281 224.558594 284.488281 224.558594 284.488281 224.558594 C 284.546875 224.558594 284.605469 224.558594 284.667969 224.558594 C 284.832031 224.566406 285 224.570312 285.164062 224.578125 C 285.511719 224.585938 285.847656 224.574219 286.199219 224.511719 C 286.609375 224.441406 287.046875 224.332031 287.484375 224.414062 C 287.585938 224.527344 287.75 224.566406 287.832031 224.476562 C 288.175781 224.089844 288.613281 224.167969 289.042969 224.1875 C 289.175781 224.195312 289.335938 224.167969 289.398438 224.066406 C 289.675781 223.574219 290.355469 224.140625 290.597656 223.59375 C 291.078125 223.867188 291.324219 223.460938 291.628906 223.234375 C 291.949219 222.96875 292.425781 222.925781 292.648438 222.523438 C 293.226562 222.308594 293.636719 221.789062 294.246094 221.625 C 294.503906 221.722656 294.71875 221.558594 294.832031 221.40625 C 295.121094 221.023438 295.53125 220.890625 295.941406 220.730469 C 296.476562 220.386719 297.011719 220.035156 297.617188 219.8125 C 297.617188 219.765625 297.621094 219.71875 297.621094 219.667969 Z M 283.75 224.277344 C 283.734375 224.273438 283.71875 224.269531 283.703125 224.261719 C 283.699219 224.261719 283.699219 224.261719 283.699219 224.261719 C 283.671875 224.222656 283.640625 224.191406 283.613281 224.160156 C 283.648438 224.171875 283.683594 224.183594 283.71875 224.195312 C 283.765625 224.214844 283.8125 224.230469 283.859375 224.246094 C 283.835938 224.25 283.8125 224.25 283.789062 224.253906 C 283.773438 224.261719 283.761719 224.269531 283.75 224.277344 Z M 286.570312 209.808594 C 286.570312 209.800781 286.570312 209.796875 286.570312 209.792969 C 286.574219 209.792969 286.578125 209.792969 286.582031 209.796875 C 286.578125 209.800781 286.574219 209.804688 286.570312 209.808594 Z M 284.679688 224.394531 C 284.664062 224.398438 284.648438 224.402344 284.636719 224.40625 C 284.628906 224.402344 284.625 224.398438 284.617188 224.394531 C 284.640625 224.394531 284.660156 224.394531 284.679688 224.394531 Z M 295.171875 218.742188 C 295.167969 218.742188 295.164062 218.742188 295.160156 218.742188 C 295.160156 218.738281 295.160156 218.734375 295.164062 218.730469 C 295.164062 218.734375 295.167969 218.738281 295.171875 218.742188 Z M 286.921875 207.042969 C 286.914062 207.039062 286.910156 207.039062 286.90625 207.035156 C 286.9375 207.035156 286.964844 207.03125 286.992188 207.03125 C 286.984375 207.035156 286.980469 207.039062 286.972656 207.042969 C 286.957031 207.042969 286.9375 207.042969 286.921875 207.042969 Z M 286.613281 207.128906 C 286.613281 207.113281 286.625 207.101562 286.640625 207.089844 C 286.628906 207.101562 286.621094 207.117188 286.613281 207.128906 Z M 283.054688 207.667969 C 283.066406 207.667969 283.074219 207.667969 283.085938 207.664062 C 283.085938 207.667969 283.085938 207.667969 283.085938 207.671875 C 283.074219 207.671875 283.066406 207.667969 283.054688 207.667969 Z M 272.300781 203.761719 C 272.292969 203.769531 272.28125 203.773438 272.273438 203.785156 C 272.265625 203.773438 272.257812 203.761719 272.253906 203.75 C 272.269531 203.753906 272.285156 203.757812 272.300781 203.761719 Z M 262.9375 203.910156 C 262.90625 203.898438 262.875 203.882812 262.839844 203.867188 C 262.632812 203.75 262.457031 203.765625 262.289062 203.960938 C 261.96875 204.332031 261.578125 204.332031 261.144531 204.164062 C 260.804688 204.03125 260.441406 203.992188 260.082031 204.109375 C 260.082031 204.105469 260.082031 204.097656 260.082031 204.09375 C 260.09375 204.089844 260.105469 204.089844 260.117188 204.082031 C 261.070312 203.84375 262.023438 203.601562 263.023438 203.703125 C 262.960938 203.726562 262.914062 203.769531 262.921875 203.847656 C 262.925781 203.875 262.929688 203.894531 262.9375 203.910156 Z M 249.621094 205.328125 C 249.695312 205.304688 249.765625 205.269531 249.839844 205.242188 C 249.9375 205.222656 250.039062 205.214844 250.128906 205.257812 C 249.960938 205.285156 249.792969 205.3125 249.621094 205.328125 Z M 251 205.429688 C 250.898438 205.449219 250.800781 205.46875 250.703125 205.492188 C 250.78125 205.433594 250.894531 205.40625 251 205.429688 Z M 258.203125 227.0625 C 258.203125 227.066406 258.203125 227.066406 258.203125 227.066406 C 258.195312 227.066406 258.191406 227.066406 258.1875 227.066406 C 258.191406 227.066406 258.199219 227.0625 258.203125 227.0625 Z M 236.578125 230.261719 C 236.574219 230.273438 236.570312 230.285156 236.566406 230.300781 C 236.550781 230.296875 236.535156 230.292969 236.519531 230.289062 C 236.535156 230.277344 236.558594 230.265625 236.578125 230.261719 Z M 234.808594 230.230469 C 234.8125 230.234375 234.820312 230.238281 234.824219 230.242188 C 234.824219 230.246094 234.820312 230.25 234.816406 230.253906 C 234.816406 230.246094 234.8125 230.238281 234.808594 230.230469 Z M 224.242188 227.582031 C 224.246094 227.582031 224.25 227.582031 224.253906 227.582031 C 224.25 227.585938 224.246094 227.59375 224.246094 227.597656 C 224.246094 227.59375 224.242188 227.589844 224.242188 227.582031 Z M 223.304688 212.953125 C 223.300781 212.957031 223.296875 212.960938 223.296875 212.964844 C 223.296875 212.960938 223.296875 212.957031 223.296875 212.957031 C 223.296875 212.953125 223.296875 212.953125 223.296875 212.953125 C 223.300781 212.953125 223.304688 212.953125 223.304688 212.953125 Z M 222.171875 212.542969 C 222.171875 212.539062 222.167969 212.539062 222.167969 212.535156 C 222.171875 212.535156 222.175781 212.535156 222.179688 212.535156 C 222.175781 212.539062 222.171875 212.542969 222.171875 212.542969 Z M 221.675781 214.058594 C 221.671875 214.0625 221.667969 214.066406 221.660156 214.074219 C 221.664062 214.066406 221.667969 214.0625 221.671875 214.058594 C 221.671875 214.058594 221.675781 214.058594 221.675781 214.058594 Z M 235.839844 208.144531 C 235.753906 208.171875 235.667969 208.199219 235.582031 208.230469 C 235.59375 208.203125 235.605469 208.167969 235.609375 208.128906 C 235.609375 208.132812 235.609375 208.132812 235.609375 208.132812 C 235.6875 208.144531 235.765625 208.148438 235.839844 208.144531 Z M 224.863281 217.109375 C 224.882812 217.195312 224.816406 217.296875 224.753906 217.300781 C 224.78125 217.257812 224.792969 217.207031 224.769531 217.132812 C 224.738281 217.042969 224.6875 216.996094 224.628906 216.964844 C 224.636719 216.964844 224.640625 216.964844 224.644531 216.964844 C 224.722656 216.945312 224.839844 217.003906 224.863281 217.109375 Z M 223.433594 212.59375 C 223.429688 212.59375 223.425781 212.59375 223.421875 212.59375 C 223.429688 212.59375 223.433594 212.59375 223.4375 212.589844 C 223.4375 212.59375 223.433594 212.59375 223.433594 212.59375 Z M 221.515625 214.058594 Z M 278.773438 225.558594 C 278.765625 225.554688 278.757812 225.550781 278.746094 225.546875 C 278.757812 225.546875 278.765625 225.546875 278.777344 225.546875 C 278.777344 225.550781 278.773438 225.554688 278.773438 225.558594 Z M 279.804688 224.828125 C 279.808594 224.828125 279.808594 224.824219 279.8125 224.824219 C 279.8125 224.824219 279.8125 224.828125 279.8125 224.828125 C 279.8125 224.828125 279.808594 224.828125 279.804688 224.828125 Z M 279.804688 224.828125 " fill-opacity="1" fill-rule="nonzero"/></g></g></g><g clip-path="url(#60550c8eee)"><g clip-path="url(#5b53ef6c01)"><g clip-path="url(#383cc4e779)"><path fill="#ffffff" d="M 230.230469 232.144531 C 230.054688 232.148438 229.933594 232.253906 229.890625 232.414062 C 229.867188 232.515625 229.980469 232.515625 230.082031 232.53125 C 230.210938 232.488281 230.363281 232.429688 230.398438 232.257812 C 230.417969 232.15625 230.308594 232.144531 230.230469 232.144531 Z M 230.230469 232.144531 " fill-opacity="1" fill-rule="nonzero"/></g></g></g><g clip-path="url(#ddc2f23675)"><g clip-path="url(#e9cb40afbd)"><g clip-path="url(#8a265969ca)"><path fill="#ffffff" d="M 232.128906 231.460938 C 232.023438 231.519531 231.917969 231.578125 231.8125 231.636719 C 231.757812 231.664062 231.699219 231.699219 231.734375 231.769531 C 231.792969 231.890625 231.90625 231.871094 232.011719 231.855469 C 232.144531 231.796875 232.28125 231.738281 232.417969 231.683594 C 232.417969 231.683594 232.417969 231.683594 232.417969 231.679688 C 232.417969 231.683594 232.417969 231.683594 232.417969 231.683594 C 232.601562 231.597656 232.789062 231.511719 233.054688 231.390625 C 232.660156 231.238281 232.398438 231.402344 232.128906 231.460938 Z M 232.128906 231.460938 " fill-opacity="1" fill-rule="nonzero"/></g></g></g><g clip-path="url(#49de4d81ff)"><g clip-path="url(#fccfeec6cf)"><g clip-path="url(#ff2448b766)"><path fill="#ffffff" d="M 280.542969 225.4375 C 280.410156 225.445312 280.183594 225.289062 280.183594 225.535156 C 280.179688 225.699219 280.402344 225.613281 280.53125 225.621094 C 280.792969 225.636719 281.050781 225.648438 281.3125 225.664062 C 281.425781 225.648438 281.566406 225.738281 281.65625 225.582031 C 281.582031 225.421875 281.433594 225.496094 281.320312 225.472656 C 281.058594 225.460938 280.800781 225.449219 280.542969 225.4375 Z M 280.542969 225.4375 " fill-opacity="1" fill-rule="nonzero"/></g></g></g><g clip-path="url(#968f296c52)"><g clip-path="url(#31f9a812f1)"><g clip-path="url(#197ecae085)"><path fill="#ffffff" d="M 287.378906 228.875 C 287.25 228.867188 287.121094 228.859375 286.996094 228.851562 C 286.867188 228.851562 286.660156 228.753906 286.652344 228.933594 C 286.640625 229.117188 286.859375 229.042969 286.984375 229.050781 C 287.113281 229.054688 287.242188 229.0625 287.371094 229.066406 C 287.609375 229.058594 287.855469 229.140625 288.1875 229.007812 C 287.871094 228.847656 287.617188 228.90625 287.378906 228.875 Z M 287.378906 228.875 " fill-opacity="1" fill-rule="nonzero"/></g></g></g><g clip-path="url(#cbdca8c34b)"><g clip-path="url(#6e23f95719)"><g clip-path="url(#5cb8bb5593)"><path fill="#ffffff" d="M 233.9375 230.898438 C 233.84375 230.863281 233.738281 230.867188 233.714844 230.992188 C 233.691406 231.109375 233.78125 231.160156 233.878906 231.175781 C 233.980469 231.195312 234.097656 231.214844 234.164062 231.09375 C 234.160156 230.941406 234.03125 230.933594 233.9375 230.898438 Z M 233.9375 230.898438 " fill-opacity="1" fill-rule="nonzero"/></g></g></g><g clip-path="url(#0c8dd97541)"><g clip-path="url(#4f3da2e72a)"><g clip-path="url(#752d16b87d)"><path fill="#ffffff" d="M 271.667969 201.660156 C 272.054688 201.6875 272.441406 201.710938 272.824219 201.738281 C 272.449219 201.542969 272.0625 201.574219 271.667969 201.660156 Z M 271.667969 201.660156 " fill-opacity="1" fill-rule="nonzero"/></g></g></g><g clip-path="url(#73f4a60ab6)"><g clip-path="url(#9016ea2c9d)"><g clip-path="url(#a1fc5726dc)"><path fill="#ffffff" d="M 230.664062 232.058594 C 230.796875 232.222656 230.921875 232.21875 231.050781 232.140625 C 231.070312 232.128906 231.082031 232.070312 231.074219 232.0625 C 230.957031 231.941406 230.828125 231.957031 230.664062 232.058594 Z M 230.664062 232.058594 " fill-opacity="1" fill-rule="nonzero"/></g></g></g><g clip-path="url(#2fba64ad15)"><g clip-path="url(#a4bee359c0)"><g clip-path="url(#704ca66030)"><path fill="#ffffff" d="M 279.101562 202.800781 C 279.167969 202.804688 279.242188 202.804688 279.246094 202.71875 C 279.25 202.628906 279.175781 202.628906 279.113281 202.621094 C 279.046875 202.621094 278.972656 202.621094 278.96875 202.703125 C 278.964844 202.789062 279.039062 202.796875 279.101562 202.800781 Z M 279.101562 202.800781 " fill-opacity="1" fill-rule="nonzero"/></g></g></g><g clip-path="url(#a29852de94)"><g clip-path="url(#5f9841cf20)"><g clip-path="url(#b71c017f4b)"><path fill="#ffffff" d="M 287.03125 209.105469 C 287 209.1875 287.085938 209.199219 287.144531 209.210938 C 287.207031 209.222656 287.265625 209.214844 287.304688 209.148438 C 287.316406 209.054688 287.242188 209.039062 287.183594 209.039062 C 287.132812 209.042969 287.046875 209.066406 287.03125 209.105469 Z M 287.03125 209.105469 " fill-opacity="1" fill-rule="nonzero"/></g></g></g><g clip-path="url(#50f05153e0)"><g clip-path="url(#3949789faa)"><g clip-path="url(#6b45ff009f)"><path fill="#ffffff" d="M 288.078125 207.582031 C 288.039062 207.640625 288.085938 207.695312 288.160156 207.710938 C 288.234375 207.722656 288.3125 207.734375 288.359375 207.644531 C 288.371094 207.554688 288.300781 207.53125 288.242188 207.53125 C 288.183594 207.527344 288.101562 207.542969 288.078125 207.582031 Z M 288.078125 207.582031 " fill-opacity="1" fill-rule="nonzero"/></g></g></g><g clip-path="url(#bdd0b137e3)"><g clip-path="url(#f5bb6df9a8)"><g clip-path="url(#7bd6580200)"><path fill="#ffffff" d="M 268.382812 231.269531 C 268.324219 231.285156 268.238281 231.28125 268.257812 231.371094 C 268.269531 231.445312 268.34375 231.457031 268.40625 231.453125 C 268.46875 231.445312 268.550781 231.445312 268.53125 231.351562 C 268.519531 231.28125 268.449219 231.273438 268.382812 231.269531 Z M 268.382812 231.269531 " fill-opacity="1" fill-rule="nonzero"/></g></g></g><g clip-path="url(#de8ad872b6)"><g clip-path="url(#6decbffc76)"><g clip-path="url(#b092266771)"><path fill="#ffffff" d="M 285.226562 208.9375 C 285.039062 208.90625 284.84375 208.835938 284.664062 209.007812 C 284.847656 209.1875 285.035156 209.144531 285.21875 209.125 C 285.34375 209.148438 285.550781 209.191406 285.558594 209.074219 C 285.570312 208.867188 285.355469 208.949219 285.226562 208.9375 Z M 285.226562 208.9375 " fill-opacity="1" fill-rule="nonzero"/></g></g></g><g clip-path="url(#db287a3c7f)"><g clip-path="url(#23e890ca43)"><g clip-path="url(#ff1fc38f1a)"><path fill="#ffffff" d="M 231.667969 206.933594 C 231.730469 206.925781 231.8125 206.925781 231.796875 206.832031 C 231.78125 206.761719 231.710938 206.75 231.644531 206.75 C 231.585938 206.761719 231.503906 206.757812 231.519531 206.851562 C 231.53125 206.921875 231.605469 206.9375 231.667969 206.933594 Z M 231.667969 206.933594 " fill-opacity="1" fill-rule="nonzero"/></g></g></g><g clip-path="url(#31e2890548)"><g clip-path="url(#73454495b7)"><g clip-path="url(#9cf627f443)"><path fill="#ffffff" d="M 288.636719 207.816406 C 288.613281 207.925781 288.707031 207.9375 288.785156 207.9375 C 288.847656 207.9375 288.921875 207.933594 288.921875 207.847656 C 288.921875 207.765625 288.851562 207.757812 288.753906 207.742188 C 288.730469 207.757812 288.644531 207.777344 288.636719 207.816406 Z M 288.636719 207.816406 " fill-opacity="1" fill-rule="nonzero"/></g></g></g><g clip-path="url(#37e63b6080)"><g clip-path="url(#3f2df1646c)"><g clip-path="url(#7eaf769549)"><path fill="#ffffff" d="M 224.910156 211.464844 C 224.738281 211.660156 224.820312 211.933594 224.691406 212.140625 C 225.011719 211.996094 224.878906 211.703125 224.910156 211.464844 Z M 224.910156 211.464844 " fill-opacity="1" fill-rule="nonzero"/></g></g></g><g clip-path="url(#b9cfc36f58)"><g clip-path="url(#01a74751c6)"><g clip-path="url(#956c8661f4)"><path fill="#ffffff" d="M 275.601562 202.824219 C 275.917969 202.691406 276.242188 202.613281 276.585938 202.6875 C 276.777344 202.695312 276.96875 202.707031 277.164062 202.71875 C 277.335938 202.734375 277.511719 202.769531 277.6875 202.757812 C 277.816406 202.75 277.898438 202.671875 277.765625 202.539062 C 277.539062 202.4375 277.320312 202.15625 277.082031 202.519531 C 276.921875 202.507812 276.761719 202.496094 276.597656 202.484375 C 276.339844 202.476562 276.078125 202.464844 275.816406 202.457031 C 275.527344 202.230469 275.238281 202.070312 274.910156 202.390625 C 274.886719 202.378906 274.863281 202.378906 274.847656 202.402344 C 274.839844 202.472656 274.835938 202.542969 274.832031 202.613281 C 274.910156 202.679688 274.996094 202.726562 275.101562 202.722656 C 275.242188 202.875 275.421875 202.851562 275.601562 202.824219 Z M 275.238281 202.679688 C 275.246094 202.6875 275.25 202.691406 275.253906 202.695312 C 275.246094 202.695312 275.242188 202.699219 275.234375 202.699219 C 275.234375 202.691406 275.238281 202.6875 275.238281 202.679688 Z M 275.238281 202.679688 " fill-opacity="1" fill-rule="nonzero"/></g></g></g><g clip-path="url(#58dbc14059)"><g clip-path="url(#8f12e725e8)"><g clip-path="url(#b25791b604)"><path fill="#ffffff" d="M 245.921875 205.386719 C 246.082031 205.367188 246.238281 205.347656 246.394531 205.324219 C 246.210938 205.144531 246.042969 205.101562 245.921875 205.386719 Z M 245.921875 205.386719 " fill-opacity="1" fill-rule="nonzero"/></g></g></g><g clip-path="url(#77546e370f)"><g clip-path="url(#1e04312194)"><g clip-path="url(#1563c76217)"><path fill="#ffffff" d="M 281.6875 223.925781 C 281.460938 224.019531 281.179688 223.859375 280.980469 224.082031 C 281.226562 224.070312 281.507812 224.234375 281.6875 223.925781 Z M 281.6875 223.925781 " fill-opacity="1" fill-rule="nonzero"/></g></g></g><g clip-path="url(#27cbdc8516)"><g clip-path="url(#58d271ba88)"><g clip-path="url(#8c65428fc1)"><path fill="#ffffff" d="M 280.011719 223.839844 C 280.210938 223.855469 280.410156 223.867188 280.609375 223.878906 C 280.425781 223.652344 280.222656 223.707031 280.011719 223.839844 Z M 280.011719 223.839844 " fill-opacity="1" fill-rule="nonzero"/></g></g></g><g clip-path="url(#76cd345da9)"><g clip-path="url(#ca048e8f4d)"><g clip-path="url(#1d628d5f48)"><path fill="#ffffff" d="M 224.457031 212.496094 C 224.542969 212.5 224.605469 212.476562 224.609375 212.398438 C 224.609375 212.378906 224.542969 212.339844 224.503906 212.335938 C 224.449219 212.332031 224.359375 212.304688 224.371094 212.410156 C 224.378906 212.445312 224.433594 212.472656 224.457031 212.496094 Z M 224.457031 212.496094 " fill-opacity="1" fill-rule="nonzero"/></g></g></g><g clip-path="url(#2f02820602)"><path fill="#bdddf4" d="M 62.003906 167.476562 L 53.757812 167.476562 L 44.140625 179.851562 L 57.878906 179.851562 Z M 62.003906 167.476562 " fill-opacity="1" fill-rule="nonzero"/></g><g clip-path="url(#d3378dd123)"><path fill="#5dadec" d="M 93.601562 179.851562 L 83.984375 167.476562 L 75.742188 167.476562 L 79.863281 179.851562 Z M 93.601562 179.851562 " fill-opacity="1" fill-rule="nonzero"/></g><g clip-path="url(#9bd77aa3cd)"><path fill="#4289c1" d="M 79.863281 179.851562 L 93.601562 179.851562 L 68.871094 208.726562 Z M 79.863281 179.851562 " fill-opacity="1" fill-rule="nonzero"/></g><g clip-path="url(#e857a1b43b)"><path fill="#8ccaf7" d="M 57.878906 179.851562 L 44.140625 179.851562 L 68.871094 208.726562 Z M 62.003906 167.476562 L 57.878906 179.851562 L 79.863281 179.851562 L 75.742188 167.476562 Z M 62.003906 167.476562 " fill-opacity="1" fill-rule="nonzero"/></g><g clip-path="url(#d51c507ad6)"><path fill="#5dadec" d="M 68.871094 208.726562 L 57.878906 179.851562 L 79.863281 179.851562 Z M 68.871094 208.726562 " fill-opacity="1" fill-rule="nonzero"/></g><g fill="#000000" fill-opacity="1"><g transform="translate(227.414389, 222.792189)"><g><path d="M 4.484375 -9.5 C 4.046875 -9.46875 3.734375 -9.40625 3.296875 -9.328125 L 0.21875 -8.765625 L 0.265625 -0.046875 L 3.4375 -0.625 C 3.890625 -0.703125 4.09375 -0.734375 4.53125 -0.859375 C 7.4375 -1.6875 8.515625 -4.015625 8.078125 -6.484375 C 7.65625 -8.75 6.203125 -9.59375 4.484375 -9.5 Z M 4 -2.515625 C 3.71875 -2.453125 3.515625 -2.40625 3.203125 -2.359375 L 2.453125 -2.21875 L 2.4375 -7.390625 L 3.15625 -7.53125 C 3.484375 -7.59375 3.6875 -7.625 3.96875 -7.65625 C 4.890625 -7.734375 5.5 -7.28125 5.734375 -6 C 6.03125 -4.4375 5.546875 -2.953125 4 -2.515625 Z M 4 -2.515625 "/></g></g></g><g fill="#000000" fill-opacity="1"><g transform="translate(236.572324, 221.15631)"><g><path d="M 2.90625 -7.21875 L 7.109375 -7.703125 L 7.21875 -9.46875 L 0.78125 -8.734375 L 0.265625 -0.03125 L 6.796875 -0.78125 L 6.90625 -2.546875 L 2.59375 -2.0625 L 2.703125 -3.78125 L 6.640625 -4.234375 L 6.75 -6 L 2.8125 -5.546875 Z M 2.90625 -7.21875 "/></g></g></g><g fill="#000000" fill-opacity="1"><g transform="translate(244.427913, 220.258307)"><g><path d="M 4.265625 -9 C 2.390625 -8.90625 0.671875 -7.734375 0.78125 -5.78125 C 0.859375 -4.5 1.859375 -3.9375 3.53125 -3.609375 C 4.4375 -3.40625 4.796875 -3.046875 4.828125 -2.65625 C 4.859375 -2.109375 4.3125 -1.703125 3.640625 -1.671875 C 2.953125 -1.625 2.328125 -1.9375 2.28125 -2.75 L 0.046875 -2.640625 C -0.046875 -0.703125 1.40625 0.09375 3.484375 -0.015625 C 5.484375 -0.125 7.296875 -1.21875 7.1875 -3.234375 C 7.125 -4.3125 6.421875 -5.109375 4.84375 -5.40625 C 3.59375 -5.609375 3.1875 -5.921875 3.15625 -6.390625 C 3.125 -6.984375 3.546875 -7.328125 4.125 -7.359375 C 4.859375 -7.390625 5.171875 -6.9375 5.171875 -6.21875 L 7.421875 -6.34375 C 7.421875 -7.9375 6.515625 -9.125 4.265625 -9 Z M 4.265625 -9 "/></g></g></g><g fill="#000000" fill-opacity="1"><g transform="translate(252.375054, 219.876086)"><g><path d="M 2.5 -0.015625 L 3.9375 -8.625 L 1.703125 -8.609375 L 0.265625 0 Z M 2.5 -0.015625 "/></g></g></g><g fill="#000000" fill-opacity="1"><g transform="translate(256.307992, 219.767655)"><g><path d="M 6.421875 -8.484375 C 3.75 -8.609375 1.0625 -6.84375 0.90625 -3.25 C 0.8125 -1 2.046875 0.265625 4.015625 0.34375 C 4.921875 0.390625 5.53125 0.265625 6.09375 -0.109375 L 6.6875 -1.046875 L 6.59375 0.28125 L 8.328125 0.359375 L 9.34375 -4.1875 L 5.578125 -4.34375 L 5.1875 -2.625 L 6.84375 -2.546875 C 6.328125 -1.625 5.671875 -1.21875 4.796875 -1.265625 C 3.921875 -1.296875 3.25 -1.890625 3.3125 -3.40625 C 3.40625 -5.78125 4.734375 -6.9375 6.046875 -6.875 C 6.96875 -6.84375 7.4375 -6.375 7.40625 -5.453125 L 7.40625 -5.328125 L 9.640625 -5.234375 L 9.65625 -5.359375 C 9.84375 -7.046875 8.859375 -8.375 6.421875 -8.484375 Z M 6.421875 -8.484375 "/></g></g></g><g fill="#000000" fill-opacity="1"><g transform="translate(266.0135, 220.187057)"><g><path d="M 10.9375 -7.359375 L 8.71875 -7.625 L 6.984375 -1.859375 L 5.53125 -8 L 2.765625 -8.328125 L 0.265625 0.03125 L 2.484375 0.296875 L 4.140625 -5.234375 L 5.515625 0.65625 L 8.421875 1 Z M 10.9375 -7.359375 "/></g></g></g><g fill="#000000" fill-opacity="1"><g transform="translate(275.78345, 221.375775)"><g><path d="M 6.265625 -7.734375 C 4.421875 -8.078125 2.484375 -7.359375 2.125 -5.4375 C 1.890625 -4.15625 2.734375 -3.390625 4.28125 -2.65625 C 5.109375 -2.265625 5.390625 -1.828125 5.3125 -1.4375 C 5.21875 -0.90625 4.578125 -0.625 3.921875 -0.75 C 3.25 -0.875 2.703125 -1.34375 2.859375 -2.140625 L 0.671875 -2.546875 C 0.109375 -0.6875 1.328125 0.421875 3.375 0.8125 C 5.359375 1.171875 7.390625 0.546875 7.75 -1.4375 C 7.953125 -2.5 7.453125 -3.4375 5.96875 -4.09375 C 4.828125 -4.609375 4.5 -5.015625 4.578125 -5.46875 C 4.6875 -6.0625 5.1875 -6.28125 5.75 -6.171875 C 6.46875 -6.03125 6.671875 -5.53125 6.515625 -4.828125 L 8.734375 -4.421875 C 9.09375 -5.96875 8.484375 -7.328125 6.265625 -7.734375 Z M 6.265625 -7.734375 "/></g></g></g></svg>