<svg xmlns="http://www.w3.org/2000/svg" xmlns:xlink="http://www.w3.org/1999/xlink" zoomAndPan="magnify" preserveAspectRatio="xMidYMid meet" version="1.0" viewBox="44.05 153.3 285.42 76.4"><defs><g/><clipPath id="74785c91d6"><path d="M 230 195 L 244 195 L 244 199 L 230 199 Z M 230 195 " clip-rule="nonzero"/></clipPath><clipPath id="aa58392645"><path d="M 213.003906 190.449219 L 296.90625 194.488281 L 295.207031 229.699219 L 211.304688 225.65625 Z M 213.003906 190.449219 " clip-rule="nonzero"/></clipPath><clipPath id="0b5e10d303"><path d="M 213.003906 190.449219 L 296.90625 194.488281 L 295.207031 229.699219 L 211.304688 225.65625 Z M 213.003906 190.449219 " clip-rule="nonzero"/></clipPath><clipPath id="eb76bdefa7"><path d="M 232 221 L 265 221 L 265 227 L 232 227 Z M 232 221 " clip-rule="nonzero"/></clipPath><clipPath id="04d9a2c85f"><path d="M 213.003906 190.449219 L 296.90625 194.488281 L 295.207031 229.699219 L 211.304688 225.65625 Z M 213.003906 190.449219 " clip-rule="nonzero"/></clipPath><clipPath id="77d5e432b0"><path d="M 213.003906 190.449219 L 296.90625 194.488281 L 295.207031 229.699219 L 211.304688 225.65625 Z M 213.003906 190.449219 " clip-rule="nonzero"/></clipPath><clipPath id="8cdc1c55d8"><path d="M 264 222 L 267 222 L 267 224 L 264 224 Z M 264 222 " clip-rule="nonzero"/></clipPath><clipPath id="01f1bedfd7"><path d="M 213.003906 190.449219 L 296.90625 194.488281 L 295.207031 229.699219 L 211.304688 225.65625 Z M 213.003906 190.449219 " clip-rule="nonzero"/></clipPath><clipPath id="7a5dc5f773"><path d="M 213.003906 190.449219 L 296.90625 194.488281 L 295.207031 229.699219 L 211.304688 225.65625 Z M 213.003906 190.449219 " clip-rule="nonzero"/></clipPath><clipPath id="1d5ca9a6db"><path d="M 212 210 L 214 210 L 214 212 L 212 212 Z M 212 210 " clip-rule="nonzero"/></clipPath><clipPath id="97a790a93b"><path d="M 213.003906 190.449219 L 296.90625 194.488281 L 295.207031 229.699219 L 211.304688 225.65625 Z M 213.003906 190.449219 " clip-rule="nonzero"/></clipPath><clipPath id="c7bb89765d"><path d="M 213.003906 190.449219 L 296.90625 194.488281 L 295.207031 229.699219 L 211.304688 225.65625 Z M 213.003906 190.449219 " clip-rule="nonzero"/></clipPath><clipPath id="212c5ea119"><path d="M 212 193 L 296 193 L 296 223 L 212 223 Z M 212 193 " clip-rule="nonzero"/></clipPath><clipPath id="add8d0abd2"><path d="M 213.003906 190.449219 L 296.90625 194.488281 L 295.207031 229.699219 L 211.304688 225.65625 Z M 213.003906 190.449219 " clip-rule="nonzero"/></clipPath><clipPath id="cad75cbcc8"><path d="M 213.003906 190.449219 L 296.90625 194.488281 L 295.207031 229.699219 L 211.304688 225.65625 Z M 213.003906 190.449219 " clip-rule="nonzero"/></clipPath><clipPath id="02a9dffb9f"><path d="M 228 223 L 229 223 L 229 225 L 228 225 Z M 228 223 " clip-rule="nonzero"/></clipPath><clipPath id="c68c285dde"><path d="M 213.003906 190.449219 L 296.90625 194.488281 L 295.207031 229.699219 L 211.304688 225.65625 Z M 213.003906 190.449219 " clip-rule="nonzero"/></clipPath><clipPath id="ac0c85c8f3"><path d="M 213.003906 190.449219 L 296.90625 194.488281 L 295.207031 229.699219 L 211.304688 225.65625 Z M 213.003906 190.449219 " clip-rule="nonzero"/></clipPath><clipPath id="5a29a5ed81"><path d="M 229 223 L 232 223 L 232 224 L 229 224 Z M 229 223 " clip-rule="nonzero"/></clipPath><clipPath id="6147d7aa11"><path d="M 213.003906 190.449219 L 296.90625 194.488281 L 295.207031 229.699219 L 211.304688 225.65625 Z M 213.003906 190.449219 " clip-rule="nonzero"/></clipPath><clipPath id="2eb525db02"><path d="M 213.003906 190.449219 L 296.90625 194.488281 L 295.207031 229.699219 L 211.304688 225.65625 Z M 213.003906 190.449219 " clip-rule="nonzero"/></clipPath><clipPath id="439f88dbfb"><path d="M 278 217 L 280 217 L 280 218 L 278 218 Z M 278 217 " clip-rule="nonzero"/></clipPath><clipPath id="f4d2c4fa06"><path d="M 213.003906 190.449219 L 296.90625 194.488281 L 295.207031 229.699219 L 211.304688 225.65625 Z M 213.003906 190.449219 " clip-rule="nonzero"/></clipPath><clipPath id="864a184ffb"><path d="M 213.003906 190.449219 L 296.90625 194.488281 L 295.207031 229.699219 L 211.304688 225.65625 Z M 213.003906 190.449219 " clip-rule="nonzero"/></clipPath><clipPath id="eb713e4715"><path d="M 284 220 L 287 220 L 287 221 L 284 221 Z M 284 220 " clip-rule="nonzero"/></clipPath><clipPath id="16d1b566cd"><path d="M 213.003906 190.449219 L 296.90625 194.488281 L 295.207031 229.699219 L 211.304688 225.65625 Z M 213.003906 190.449219 " clip-rule="nonzero"/></clipPath><clipPath id="8dae49c1f2"><path d="M 213.003906 190.449219 L 296.90625 194.488281 L 295.207031 229.699219 L 211.304688 225.65625 Z M 213.003906 190.449219 " clip-rule="nonzero"/></clipPath><clipPath id="1f7bfd30f7"><path d="M 231 222 L 233 222 L 233 223 L 231 223 Z M 231 222 " clip-rule="nonzero"/></clipPath><clipPath id="c8e49b83e4"><path d="M 213.003906 190.449219 L 296.90625 194.488281 L 295.207031 229.699219 L 211.304688 225.65625 Z M 213.003906 190.449219 " clip-rule="nonzero"/></clipPath><clipPath id="0726832a6b"><path d="M 213.003906 190.449219 L 296.90625 194.488281 L 295.207031 229.699219 L 211.304688 225.65625 Z M 213.003906 190.449219 " clip-rule="nonzero"/></clipPath><clipPath id="efef6be091"><path d="M 269 193 L 272 193 L 272 194 L 269 194 Z M 269 193 " clip-rule="nonzero"/></clipPath><clipPath id="01a2f94f75"><path d="M 213.003906 190.449219 L 296.90625 194.488281 L 295.207031 229.699219 L 211.304688 225.65625 Z M 213.003906 190.449219 " clip-rule="nonzero"/></clipPath><clipPath id="fbdf13a424"><path d="M 213.003906 190.449219 L 296.90625 194.488281 L 295.207031 229.699219 L 211.304688 225.65625 Z M 213.003906 190.449219 " clip-rule="nonzero"/></clipPath><clipPath id="420ab779db"><path d="M 228 223 L 230 223 L 230 224 L 228 224 Z M 228 223 " clip-rule="nonzero"/></clipPath><clipPath id="736a713c3b"><path d="M 213.003906 190.449219 L 296.90625 194.488281 L 295.207031 229.699219 L 211.304688 225.65625 Z M 213.003906 190.449219 " clip-rule="nonzero"/></clipPath><clipPath id="be8c73b6d4"><path d="M 213.003906 190.449219 L 296.90625 194.488281 L 295.207031 229.699219 L 211.304688 225.65625 Z M 213.003906 190.449219 " clip-rule="nonzero"/></clipPath><clipPath id="4553ca3524"><path d="M 277 194 L 278 194 L 278 195 L 277 195 Z M 277 194 " clip-rule="nonzero"/></clipPath><clipPath id="7815f84606"><path d="M 213.003906 190.449219 L 296.90625 194.488281 L 295.207031 229.699219 L 211.304688 225.65625 Z M 213.003906 190.449219 " clip-rule="nonzero"/></clipPath><clipPath id="f3c6165830"><path d="M 213.003906 190.449219 L 296.90625 194.488281 L 295.207031 229.699219 L 211.304688 225.65625 Z M 213.003906 190.449219 " clip-rule="nonzero"/></clipPath><clipPath id="38fb2c9c48"><path d="M 285 200 L 286 200 L 286 201 L 285 201 Z M 285 200 " clip-rule="nonzero"/></clipPath><clipPath id="b68faa9771"><path d="M 213.003906 190.449219 L 296.90625 194.488281 L 295.207031 229.699219 L 211.304688 225.65625 Z M 213.003906 190.449219 " clip-rule="nonzero"/></clipPath><clipPath id="52f06c92e9"><path d="M 213.003906 190.449219 L 296.90625 194.488281 L 295.207031 229.699219 L 211.304688 225.65625 Z M 213.003906 190.449219 " clip-rule="nonzero"/></clipPath><clipPath id="3caa903326"><path d="M 286 199 L 287 199 L 287 200 L 286 200 Z M 286 199 " clip-rule="nonzero"/></clipPath><clipPath id="bf41a1f0ae"><path d="M 213.003906 190.449219 L 296.90625 194.488281 L 295.207031 229.699219 L 211.304688 225.65625 Z M 213.003906 190.449219 " clip-rule="nonzero"/></clipPath><clipPath id="4fe797168c"><path d="M 213.003906 190.449219 L 296.90625 194.488281 L 295.207031 229.699219 L 211.304688 225.65625 Z M 213.003906 190.449219 " clip-rule="nonzero"/></clipPath><clipPath id="54608bfe22"><path d="M 266 223 L 267 223 L 267 224 L 266 224 Z M 266 223 " clip-rule="nonzero"/></clipPath><clipPath id="1f3cba9e1b"><path d="M 213.003906 190.449219 L 296.90625 194.488281 L 295.207031 229.699219 L 211.304688 225.65625 Z M 213.003906 190.449219 " clip-rule="nonzero"/></clipPath><clipPath id="e3e2eb3344"><path d="M 213.003906 190.449219 L 296.90625 194.488281 L 295.207031 229.699219 L 211.304688 225.65625 Z M 213.003906 190.449219 " clip-rule="nonzero"/></clipPath><clipPath id="76d7b3aa88"><path d="M 282 200 L 284 200 L 284 201 L 282 201 Z M 282 200 " clip-rule="nonzero"/></clipPath><clipPath id="7dcf7d50c8"><path d="M 213.003906 190.449219 L 296.90625 194.488281 L 295.207031 229.699219 L 211.304688 225.65625 Z M 213.003906 190.449219 " clip-rule="nonzero"/></clipPath><clipPath id="35bb2b8205"><path d="M 213.003906 190.449219 L 296.90625 194.488281 L 295.207031 229.699219 L 211.304688 225.65625 Z M 213.003906 190.449219 " clip-rule="nonzero"/></clipPath><clipPath id="cf88a42f7c"><path d="M 229 198 L 231 198 L 231 199 L 229 199 Z M 229 198 " clip-rule="nonzero"/></clipPath><clipPath id="19466fafe5"><path d="M 213.003906 190.449219 L 296.90625 194.488281 L 295.207031 229.699219 L 211.304688 225.65625 Z M 213.003906 190.449219 " clip-rule="nonzero"/></clipPath><clipPath id="85f4a71b9c"><path d="M 213.003906 190.449219 L 296.90625 194.488281 L 295.207031 229.699219 L 211.304688 225.65625 Z M 213.003906 190.449219 " clip-rule="nonzero"/></clipPath><clipPath id="9dea7e161a"><path d="M 286 199 L 288 199 L 288 200 L 286 200 Z M 286 199 " clip-rule="nonzero"/></clipPath><clipPath id="a7007a175b"><path d="M 213.003906 190.449219 L 296.90625 194.488281 L 295.207031 229.699219 L 211.304688 225.65625 Z M 213.003906 190.449219 " clip-rule="nonzero"/></clipPath><clipPath id="49a3b0bcc1"><path d="M 213.003906 190.449219 L 296.90625 194.488281 L 295.207031 229.699219 L 211.304688 225.65625 Z M 213.003906 190.449219 " clip-rule="nonzero"/></clipPath><clipPath id="f98cb4231b"><path d="M 222 203 L 224 203 L 224 204 L 222 204 Z M 222 203 " clip-rule="nonzero"/></clipPath><clipPath id="267cd51c4a"><path d="M 213.003906 190.449219 L 296.90625 194.488281 L 295.207031 229.699219 L 211.304688 225.65625 Z M 213.003906 190.449219 " clip-rule="nonzero"/></clipPath><clipPath id="bbe23bb8f9"><path d="M 213.003906 190.449219 L 296.90625 194.488281 L 295.207031 229.699219 L 211.304688 225.65625 Z M 213.003906 190.449219 " clip-rule="nonzero"/></clipPath><clipPath id="f4b6f646ed"><path d="M 273 193 L 277 193 L 277 195 L 273 195 Z M 273 193 " clip-rule="nonzero"/></clipPath><clipPath id="772058ab2c"><path d="M 213.003906 190.449219 L 296.90625 194.488281 L 295.207031 229.699219 L 211.304688 225.65625 Z M 213.003906 190.449219 " clip-rule="nonzero"/></clipPath><clipPath id="60e763de41"><path d="M 213.003906 190.449219 L 296.90625 194.488281 L 295.207031 229.699219 L 211.304688 225.65625 Z M 213.003906 190.449219 " clip-rule="nonzero"/></clipPath><clipPath id="726eeffe36"><path d="M 244 196 L 245 196 L 245 198 L 244 198 Z M 244 196 " clip-rule="nonzero"/></clipPath><clipPath id="fdb0e32154"><path d="M 213.003906 190.449219 L 296.90625 194.488281 L 295.207031 229.699219 L 211.304688 225.65625 Z M 213.003906 190.449219 " clip-rule="nonzero"/></clipPath><clipPath id="f93eb70158"><path d="M 213.003906 190.449219 L 296.90625 194.488281 L 295.207031 229.699219 L 211.304688 225.65625 Z M 213.003906 190.449219 " clip-rule="nonzero"/></clipPath><clipPath id="7721495a90"><path d="M 279 215 L 280 215 L 280 216 L 279 216 Z M 279 215 " clip-rule="nonzero"/></clipPath><clipPath id="75bfe9d041"><path d="M 213.003906 190.449219 L 296.90625 194.488281 L 295.207031 229.699219 L 211.304688 225.65625 Z M 213.003906 190.449219 " clip-rule="nonzero"/></clipPath><clipPath id="d87307a942"><path d="M 213.003906 190.449219 L 296.90625 194.488281 L 295.207031 229.699219 L 211.304688 225.65625 Z M 213.003906 190.449219 " clip-rule="nonzero"/></clipPath><clipPath id="9ab1fddb97"><path d="M 278 215 L 279 215 L 279 216 L 278 216 Z M 278 215 " clip-rule="nonzero"/></clipPath><clipPath id="606ab74167"><path d="M 213.003906 190.449219 L 296.90625 194.488281 L 295.207031 229.699219 L 211.304688 225.65625 Z M 213.003906 190.449219 " clip-rule="nonzero"/></clipPath><clipPath id="d1b8353826"><path d="M 213.003906 190.449219 L 296.90625 194.488281 L 295.207031 229.699219 L 211.304688 225.65625 Z M 213.003906 190.449219 " clip-rule="nonzero"/></clipPath><clipPath id="4a236c06ae"><path d="M 222 204 L 223 204 L 223 205 L 222 205 Z M 222 204 " clip-rule="nonzero"/></clipPath><clipPath id="1a90956d50"><path d="M 213.003906 190.449219 L 296.90625 194.488281 L 295.207031 229.699219 L 211.304688 225.65625 Z M 213.003906 190.449219 " clip-rule="nonzero"/></clipPath><clipPath id="a77fa56324"><path d="M 213.003906 190.449219 L 296.90625 194.488281 L 295.207031 229.699219 L 211.304688 225.65625 Z M 213.003906 190.449219 " clip-rule="nonzero"/></clipPath><clipPath id="51d5bab7da"><path d="M 44.046875 160.890625 L 64 160.890625 L 64 175 L 44.046875 175 Z M 44.046875 160.890625 " clip-rule="nonzero"/></clipPath><clipPath id="407a23ac86"><path d="M 77 160.890625 L 96.546875 160.890625 L 96.546875 175 L 77 175 Z M 77 160.890625 " clip-rule="nonzero"/></clipPath><clipPath id="bb9d547f54"><path d="M 70 174 L 96.546875 174 L 96.546875 205.140625 L 70 205.140625 Z M 70 174 " clip-rule="nonzero"/></clipPath><clipPath id="79282a6efe"><path d="M 44.046875 160.890625 L 82 160.890625 L 82 205.140625 L 44.046875 205.140625 Z M 44.046875 160.890625 " clip-rule="nonzero"/></clipPath><clipPath id="c770893600"><path d="M 58 174 L 82 174 L 82 205.140625 L 58 205.140625 Z M 58 174 " clip-rule="nonzero"/></clipPath></defs><path stroke-linecap="butt" transform="matrix(0.594547, 0, 0, 0.594547, 91.416538, 156.786962)" fill="none" stroke-linejoin="miter" d="M 52.524009 3.071783 C 62.85225 3.071783 71.012349 5.653844 77.017446 10.817964 C 83.035683 15.982085 86.044802 23.360338 86.044802 32.959295 L 64.672175 32.959295 C 64.672175 28.898956 63.607815 25.692734 61.479093 23.334058 C 59.356942 20.975382 56.328113 19.799329 52.399176 19.799329 C 47.885498 19.799329 44.561014 21.218477 42.432292 24.050202 C 40.303571 26.888497 39.23921 30.837144 39.23921 35.902713 L 39.23921 42.380859 C 39.23921 47.380726 40.303571 51.316233 42.432292 54.187379 C 44.561014 57.051955 47.819797 58.490813 52.202073 58.490813 C 56.525217 58.490813 59.79714 57.373891 62.024414 55.146618 C 64.271398 52.919344 65.388319 49.778823 65.388319 45.725054 L 86.044802 45.725054 C 86.044802 55.25831 83.127665 62.551152 77.286821 67.616721 C 71.452548 72.682289 63.193897 75.211789 52.524009 75.211789 C 40.632077 75.211789 31.631002 72.176389 25.514213 66.105591 C 19.390853 60.021653 16.335744 51.033718 16.335744 39.141786 C 16.335744 27.249854 19.390853 18.275059 25.514213 12.204261 C 31.631002 6.113752 40.632077 3.071783 52.524009 3.071783 Z M 111.08356 26.080371 C 113.245132 23.918799 115.781201 22.243417 118.678628 21.060794 C 121.582624 19.8716 124.624593 19.280289 127.811105 19.280289 C 134.026447 19.280289 138.684667 21.001663 141.785768 24.45098 C 144.886868 27.893727 146.437418 32.860744 146.437418 39.33889 L 146.437418 74.002885 L 126.273696 74.002885 L 126.273696 41.763267 C 126.273696 39.470292 125.682384 37.637227 124.493191 36.25093 C 123.323708 34.864633 121.654896 34.168199 119.499894 34.168199 C 116.990105 34.168199 114.959935 34.989465 113.409385 36.618857 C 111.858835 38.235108 111.08356 40.225857 111.08356 42.584533 L 111.08356 74.002885 L 90.926407 74.002885 L 90.926407 0.522574 L 111.08356 0.522574 Z M 191.547917 74.002885 L 190.214181 65.888777 C 188.11831 68.786203 185.365427 71.072608 181.94896 72.74142 C 178.552204 74.390523 174.958344 75.211789 171.16738 75.211789 C 164.945469 75.211789 160.287248 73.490415 157.186148 70.041098 C 154.085047 66.591781 152.534497 61.631334 152.534497 55.146618 L 152.534497 20.489193 L 172.69822 20.489193 L 172.69822 52.72224 C 172.69822 55.015215 173.282961 56.854851 174.452444 58.241148 C 175.641637 59.627445 177.31702 60.317308 179.478592 60.317308 C 181.981811 60.317308 184.01198 59.509183 185.562531 57.892931 C 187.113081 56.263539 187.888356 54.266221 187.888356 51.907545 L 187.888356 20.489193 L 208.052079 20.489193 L 208.052079 74.002885 Z M 234.80564 25.462779 C 238.649165 21.336739 243.642462 19.280289 249.798672 19.280289 C 257.019243 19.280289 262.597281 21.625825 266.519648 26.330036 C 270.448584 31.027678 272.406482 37.972303 272.406482 47.157342 C 272.406482 56.408082 270.448584 63.405269 266.519648 68.135761 C 262.597281 72.853113 257.019243 75.211789 249.798672 75.211789 C 242.374427 75.211789 236.704407 72.274941 232.77547 66.407817 L 231.047527 74.002885 L 214.641917 74.002885 L 214.641917 0.522574 L 234.80564 0.522574 Z M 243.511059 34.168199 C 240.541362 34.168199 238.320658 35.23256 236.835809 37.361281 C 235.35096 39.490003 234.608536 42.242886 234.608536 45.626502 L 234.608536 48.964127 C 234.608536 52.347743 235.35096 55.080916 236.835809 57.176787 C 238.320658 59.272658 240.541362 60.317308 243.511059 60.317308 C 249.319053 60.317308 252.223049 56.874561 252.223049 49.975927 L 252.223049 44.608132 C 252.223049 37.650367 249.319053 34.168199 243.511059 34.168199 Z M 296.617404 25.462779 C 300.460929 21.336739 305.454226 19.280289 311.603866 19.280289 C 318.831007 19.280289 324.402475 21.625825 328.331412 26.330036 C 332.253778 31.027678 334.218247 37.972303 334.218247 47.157342 C 334.218247 56.408082 332.253778 63.405269 328.331412 68.135761 C 324.402475 72.853113 318.831007 75.211789 311.603866 75.211789 C 304.186191 75.211789 298.509601 72.274941 294.587234 66.407817 L 292.852721 74.002885 L 276.453681 74.002885 L 276.453681 0.522574 L 296.617404 0.522574 Z M 305.322824 34.168199 C 302.353126 34.168199 300.125852 35.23256 298.641003 37.361281 C 297.156155 39.490003 296.4203 42.242886 296.4203 45.626502 L 296.4203 48.964127 C 296.4203 52.347743 297.156155 55.080916 298.641003 57.176787 C 300.125852 59.272658 302.353126 60.317308 305.322824 60.317308 C 311.130817 60.317308 314.028243 56.874561 314.028243 49.975927 L 314.028243 44.608132 C 314.028243 37.650367 311.130817 34.168199 305.322824 34.168199 Z M 374.95304 72.366923 C 372.180446 79.870009 368.78369 85.55974 364.756201 89.436116 C 360.735283 93.332202 355.111254 95.276959 347.884113 95.276959 C 343.501837 95.276959 339.612322 94.665938 336.235276 93.443894 L 336.235276 81.394279 L 344.349384 81.394279 C 349.414953 81.394279 352.410931 78.930481 353.350459 74.002885 L 332.076385 20.489193 L 353.770947 20.489193 L 363.994067 56.066436 L 364.710211 56.066436 L 374.131774 20.489193 L 393.999841 20.489193 Z M 374.95304 72.366923 " stroke="#ffffff" stroke-width="7.599975" stroke-opacity="1" stroke-miterlimit="4"/><g fill="#000000" fill-opacity="1"><g transform="translate(98.421046, 200.783441)"><g><path d="M 24.21875 -42.171875 C 30.363281 -42.171875 35.222656 -40.632812 38.796875 -37.5625 C 42.367188 -34.488281 44.15625 -30.101562 44.15625 -24.40625 L 31.453125 -24.40625 C 31.453125 -26.8125 30.816406 -28.71875 29.546875 -30.125 C 28.285156 -31.53125 26.488281 -32.234375 24.15625 -32.234375 C 21.46875 -32.234375 19.488281 -31.390625 18.21875 -29.703125 C 16.957031 -28.015625 16.328125 -25.664062 16.328125 -22.65625 L 16.328125 -18.796875 C 16.328125 -15.828125 16.957031 -13.488281 18.21875 -11.78125 C 19.488281 -10.070312 21.429688 -9.21875 24.046875 -9.21875 C 26.609375 -9.21875 28.550781 -9.878906 29.875 -11.203125 C 31.207031 -12.523438 31.875 -14.394531 31.875 -16.8125 L 44.15625 -16.8125 C 44.15625 -11.144531 42.414062 -6.804688 38.9375 -3.796875 C 35.46875 -0.785156 30.5625 0.71875 24.21875 0.71875 C 17.144531 0.71875 11.789062 -1.085938 8.15625 -4.703125 C 4.53125 -8.316406 2.71875 -13.65625 2.71875 -20.71875 C 2.71875 -27.789062 4.53125 -33.132812 8.15625 -36.75 C 11.789062 -40.363281 17.144531 -42.171875 24.21875 -42.171875 Z M 24.21875 -42.171875 "/></g></g></g><g fill="#000000" fill-opacity="1"><g transform="translate(141.857048, 200.783441)"><g><path d="M 15.609375 -28.5 C 16.890625 -29.78125 18.394531 -30.769531 20.125 -31.46875 C 21.851562 -32.175781 23.660156 -32.53125 25.546875 -32.53125 C 29.242188 -32.53125 32.015625 -31.503906 33.859375 -29.453125 C 35.703125 -27.410156 36.625 -24.460938 36.625 -20.609375 L 36.625 0 L 24.640625 0 L 24.640625 -19.15625 C 24.640625 -20.519531 24.285156 -21.613281 23.578125 -22.4375 C 22.878906 -23.257812 21.890625 -23.671875 20.609375 -23.671875 C 19.117188 -23.671875 17.910156 -23.1875 16.984375 -22.21875 C 16.066406 -21.257812 15.609375 -20.078125 15.609375 -18.671875 L 15.609375 0 L 3.609375 0 L 3.609375 -43.6875 L 15.609375 -43.6875 Z M 15.609375 -28.5 "/></g></g></g><g fill="#000000" fill-opacity="1"><g transform="translate(178.605929, 200.783441)"><g><path d="M 26.6875 0 L 25.90625 -4.8125 C 24.664062 -3.09375 23.03125 -1.738281 21 -0.75 C 18.96875 0.226562 16.828125 0.71875 14.578125 0.71875 C 10.878906 0.71875 8.109375 -0.300781 6.265625 -2.34375 C 4.421875 -4.394531 3.5 -7.347656 3.5 -11.203125 L 3.5 -31.8125 L 15.484375 -31.8125 L 15.484375 -12.65625 C 15.484375 -11.289062 15.832031 -10.195312 16.53125 -9.375 C 17.238281 -8.550781 18.234375 -8.140625 19.515625 -8.140625 C 21.003906 -8.140625 22.207031 -8.617188 23.125 -9.578125 C 24.050781 -10.546875 24.515625 -11.734375 24.515625 -13.140625 L 24.515625 -31.8125 L 36.515625 -31.8125 L 36.515625 0 Z M 26.6875 0 "/></g></g></g><g fill="#000000" fill-opacity="1"><g transform="translate(215.354806, 200.783441)"><g><path d="M 15.671875 -28.859375 C 17.953125 -31.304688 20.921875 -32.53125 24.578125 -32.53125 C 28.878906 -32.53125 32.191406 -31.132812 34.515625 -28.34375 C 36.847656 -25.550781 38.015625 -21.425781 38.015625 -15.96875 C 38.015625 -10.46875 36.847656 -6.3125 34.515625 -3.5 C 32.191406 -0.6875 28.878906 0.71875 24.578125 0.71875 C 20.160156 0.71875 16.785156 -1.023438 14.453125 -4.515625 L 13.4375 0 L 3.671875 0 L 3.671875 -43.6875 L 15.671875 -43.6875 Z M 20.84375 -23.671875 C 19.082031 -23.671875 17.757812 -23.035156 16.875 -21.765625 C 15.988281 -20.503906 15.546875 -18.875 15.546875 -16.875 L 15.546875 -14.875 C 15.546875 -12.875 15.988281 -11.25 16.875 -10 C 17.757812 -8.757812 19.082031 -8.140625 20.84375 -8.140625 C 24.300781 -8.140625 26.03125 -10.1875 26.03125 -14.28125 L 26.03125 -17.46875 C 26.03125 -21.601562 24.300781 -23.671875 20.84375 -23.671875 Z M 20.84375 -23.671875 "/></g></g></g><g fill="#000000" fill-opacity="1"><g transform="translate(252.103683, 200.783441)"><g><path d="M 15.671875 -28.859375 C 17.953125 -31.304688 20.921875 -32.53125 24.578125 -32.53125 C 28.878906 -32.53125 32.191406 -31.132812 34.515625 -28.34375 C 36.847656 -25.550781 38.015625 -21.425781 38.015625 -15.96875 C 38.015625 -10.46875 36.847656 -6.3125 34.515625 -3.5 C 32.191406 -0.6875 28.878906 0.71875 24.578125 0.71875 C 20.160156 0.71875 16.785156 -1.023438 14.453125 -4.515625 L 13.4375 0 L 3.671875 0 L 3.671875 -43.6875 L 15.671875 -43.6875 Z M 20.84375 -23.671875 C 19.082031 -23.671875 17.757812 -23.035156 16.875 -21.765625 C 15.988281 -20.503906 15.546875 -18.875 15.546875 -16.875 L 15.546875 -14.875 C 15.546875 -12.875 15.988281 -11.25 16.875 -10 C 17.757812 -8.757812 19.082031 -8.140625 20.84375 -8.140625 C 24.300781 -8.140625 26.03125 -10.1875 26.03125 -14.28125 L 26.03125 -17.46875 C 26.03125 -21.601562 24.300781 -23.671875 20.84375 -23.671875 Z M 20.84375 -23.671875 "/></g></g></g><g fill="#000000" fill-opacity="1"><g transform="translate(288.85256, 200.783441)"><g><path d="M 25.484375 -0.96875 C 23.835938 3.488281 21.816406 6.875 19.421875 9.1875 C 17.035156 11.5 13.695312 12.65625 9.40625 12.65625 C 6.789062 12.65625 4.476562 12.289062 2.46875 11.5625 L 2.46875 4.390625 L 7.296875 4.390625 C 10.304688 4.390625 12.09375 2.925781 12.65625 0 L 0 -31.8125 L 12.890625 -31.8125 L 18.984375 -10.671875 L 19.40625 -10.671875 L 25 -31.8125 L 36.8125 -31.8125 Z M 25.484375 -0.96875 "/></g></g></g><g clip-path="url(#74785c91d6)"><g clip-path="url(#aa58392645)"><g clip-path="url(#0b5e10d303)"><path fill="#ffffff" d="M 231.261719 198.839844 C 231.863281 198.90625 232.441406 199.027344 233.070312 198.953125 C 233.648438 198.882812 234.226562 198.75 234.8125 198.742188 C 234.804688 198.714844 234.789062 198.695312 234.773438 198.671875 C 235.027344 198.394531 235.273438 198.273438 235.6875 198.472656 C 236.066406 198.65625 236.527344 198.652344 236.957031 198.535156 C 237.917969 198.402344 238.855469 198.054688 239.847656 198.164062 C 239.894531 198.113281 239.9375 198.0625 239.984375 198.011719 C 239.984375 197.996094 239.984375 197.976562 239.984375 197.960938 C 239.992188 197.957031 240 197.953125 240.007812 197.945312 C 240.804688 197.808594 241.621094 197.804688 242.421875 197.695312 C 242.90625 197.628906 243.449219 197.539062 243.8125 197.105469 C 243.878906 197.070312 243.921875 197 243.875 196.953125 C 243.539062 196.628906 243.351562 196.21875 243.167969 195.800781 C 243.09375 195.628906 242.90625 195.585938 242.753906 195.621094 C 242.386719 195.707031 242.015625 195.609375 241.648438 195.664062 C 241.617188 195.65625 241.582031 195.644531 241.550781 195.636719 C 241.035156 195.730469 240.542969 195.949219 240 195.871094 C 239.859375 195.851562 239.71875 195.855469 239.574219 195.90625 C 238.835938 196.167969 238.046875 196.160156 237.285156 196.3125 C 236.632812 196.441406 235.972656 196.523438 235.367188 196.824219 C 235.308594 196.796875 235.277344 196.828125 235.25 196.875 C 235.210938 197.148438 235.101562 197.390625 234.808594 197.441406 C 234.503906 197.496094 234.507812 197.226562 234.425781 197.042969 C 234.480469 197.027344 234.53125 197.003906 234.578125 196.960938 C 234.269531 196.742188 233.941406 196.789062 233.617188 196.90625 C 233.136719 197.074219 232.660156 197.234375 232.160156 197.339844 C 231.789062 197.421875 231.425781 197.554688 231.082031 197.707031 C 230.785156 197.839844 230.546875 198.140625 230.582031 198.421875 C 230.613281 198.695312 230.953125 198.804688 231.261719 198.839844 Z M 231.261719 198.839844 " fill-opacity="1" fill-rule="nonzero"/></g></g></g><g clip-path="url(#eb76bdefa7)"><g clip-path="url(#04d9a2c85f)"><g clip-path="url(#77d5e432b0)"><path fill="#ffffff" d="M 264.445312 222.621094 C 264.226562 222.582031 263.996094 222.589844 263.773438 222.578125 C 262.988281 222.597656 262.246094 222.332031 261.484375 222.203125 C 261.222656 222.160156 261.039062 222.09375 260.851562 222.300781 C 260.519531 222.546875 260.308594 222.34375 260.109375 222.097656 C 260.011719 222.019531 259.941406 221.894531 259.792969 221.898438 C 258.929688 221.914062 258.078125 221.695312 257.210938 221.769531 C 256.675781 221.917969 256.132812 221.789062 255.59375 221.792969 C 254.730469 221.800781 253.875 221.636719 253.007812 221.730469 C 253.019531 221.753906 253.035156 221.769531 253.050781 221.789062 C 253.050781 221.789062 253.046875 221.789062 253.046875 221.789062 C 253.035156 221.769531 253.019531 221.75 253.007812 221.730469 C 252.683594 221.832031 252.351562 221.84375 252.011719 221.824219 C 251.726562 221.804688 251.4375 221.734375 251.152344 221.835938 C 250.519531 222.007812 249.835938 221.902344 249.214844 222.15625 C 249.191406 222.160156 249.164062 222.164062 249.136719 222.167969 C 248.890625 222.257812 248.632812 222.207031 248.382812 222.226562 C 247.679688 222.289062 246.964844 222.277344 246.28125 222.503906 C 245.632812 222.585938 244.988281 222.683594 244.335938 222.742188 C 243.851562 222.785156 243.496094 223.226562 242.964844 223.128906 C 242.199219 222.984375 241.515625 223.351562 240.796875 223.515625 C 240.660156 223.65625 240.488281 223.6875 240.304688 223.660156 C 239.644531 223.554688 239.03125 223.722656 238.433594 223.972656 C 238.308594 223.914062 238.21875 223.960938 238.140625 224.058594 C 237.976562 224.144531 237.835938 224.25 237.625 224.242188 C 237.46875 224.234375 237.261719 224.246094 237.238281 224.488281 C 236.945312 224.648438 236.667969 224.160156 236.375 224.46875 C 236.265625 224.515625 236.15625 224.5625 236.050781 224.609375 C 235.597656 224.53125 235.164062 224.582031 234.738281 224.753906 C 234.269531 224.941406 233.792969 225.117188 233.320312 225.300781 C 233.082031 225.371094 232.914062 225.546875 232.757812 225.71875 C 232.53125 225.976562 232.632812 226.289062 232.964844 226.4375 C 233.425781 226.820312 233.914062 227.019531 234.519531 226.742188 C 234.667969 226.671875 234.871094 226.695312 235.046875 226.71875 C 235.453125 226.773438 235.847656 226.773438 236.226562 226.601562 C 236.75 226.363281 237.359375 226.421875 237.855469 226.101562 C 237.855469 226.0625 237.855469 226.027344 237.859375 225.992188 C 238.070312 225.984375 238.269531 225.945312 238.449219 225.828125 C 238.917969 225.835938 239.394531 225.90625 239.847656 225.835938 C 240.683594 225.710938 241.484375 225.429688 242.347656 225.402344 C 242.78125 225.386719 243.210938 225.203125 243.609375 224.984375 C 243.785156 224.886719 243.75 224.820312 243.640625 224.71875 C 243.601562 224.550781 243.605469 224.386719 243.691406 224.207031 C 243.808594 224.355469 243.773438 224.554688 243.949219 224.625 C 244.058594 224.742188 244.066406 224.984375 244.320312 224.917969 C 244.8125 225.074219 245.230469 224.769531 245.691406 224.710938 C 245.652344 224.769531 245.613281 224.828125 245.578125 224.886719 C 245.9375 224.765625 246.316406 224.859375 246.683594 224.785156 C 246.667969 224.769531 246.65625 224.75 246.640625 224.730469 C 246.640625 224.730469 246.644531 224.726562 246.644531 224.726562 C 246.65625 224.746094 246.671875 224.765625 246.683594 224.785156 C 247.519531 224.644531 248.363281 224.5625 249.207031 224.535156 C 249.460938 224.527344 249.714844 224.566406 249.972656 224.53125 C 251.121094 224.378906 252.261719 224.101562 253.4375 224.183594 C 253.753906 224.207031 254.074219 224.289062 254.390625 224.167969 C 255.03125 224.023438 255.71875 224.046875 256.320312 223.855469 C 257.0625 223.617188 257.792969 223.8125 258.523438 223.679688 C 259.089844 223.578125 259.679688 223.425781 260.285156 223.511719 C 260.472656 223.539062 260.640625 223.382812 260.75 223.210938 C 260.84375 223.183594 260.933594 223.152344 261.027344 223.214844 C 261.1875 223.546875 261.511719 223.460938 261.753906 223.433594 C 262.636719 223.324219 263.507812 223.125 264.40625 223.160156 C 264.539062 223.167969 264.71875 223.125 264.710938 222.925781 C 264.707031 222.765625 264.589844 222.644531 264.445312 222.621094 Z M 244.941406 222.726562 C 245.191406 222.6875 245.449219 222.671875 245.707031 222.648438 C 245.453125 222.683594 245.195312 222.707031 244.941406 222.726562 Z M 243.347656 223.167969 C 243.441406 223.160156 243.535156 223.144531 243.628906 223.125 C 243.539062 223.15625 243.445312 223.175781 243.347656 223.167969 Z M 246.761719 222.511719 Z M 236.246094 224.75 C 236.246094 224.75 236.246094 224.75 236.246094 224.753906 C 236.246094 224.75 236.246094 224.75 236.246094 224.75 Z M 236.628906 225.054688 C 236.640625 225.054688 236.648438 225.058594 236.65625 225.0625 C 236.652344 225.066406 236.644531 225.066406 236.640625 225.066406 C 236.636719 225.0625 236.632812 225.058594 236.628906 225.054688 Z M 237.824219 224.617188 C 237.820312 224.617188 237.820312 224.617188 237.816406 224.617188 C 237.816406 224.613281 237.820312 224.613281 237.824219 224.609375 C 237.824219 224.613281 237.824219 224.617188 237.824219 224.617188 Z M 237.277344 225.859375 C 237.277344 225.859375 237.277344 225.859375 237.28125 225.859375 C 237.277344 225.863281 237.277344 225.863281 237.277344 225.863281 C 237.277344 225.863281 237.277344 225.863281 237.277344 225.859375 Z M 238.4375 224.066406 C 238.433594 224.066406 238.429688 224.066406 238.425781 224.066406 C 238.425781 224.066406 238.429688 224.070312 238.429688 224.070312 C 238.429688 224.070312 238.429688 224.070312 238.425781 224.070312 C 238.425781 224.070312 238.425781 224.066406 238.425781 224.066406 C 238.425781 224.054688 238.425781 224.046875 238.429688 224.039062 C 238.429688 224.046875 238.433594 224.058594 238.4375 224.066406 Z M 238.4375 224.066406 " fill-opacity="1" fill-rule="nonzero"/></g></g></g><g clip-path="url(#8cdc1c55d8)"><g clip-path="url(#01f1bedfd7)"><g clip-path="url(#7a5dc5f773)"><path fill="#ffffff" d="M 265.644531 222.742188 C 265.445312 222.582031 265.1875 222.589844 264.957031 222.6875 C 264.839844 222.738281 264.816406 222.859375 264.875 222.980469 C 265.003906 223.253906 265.261719 223.226562 265.558594 223.242188 C 265.691406 223.199219 265.980469 223.363281 266.046875 223.082031 C 266.105469 222.832031 265.78125 222.855469 265.644531 222.742188 Z M 265.644531 222.742188 " fill-opacity="1" fill-rule="nonzero"/></g></g></g><g clip-path="url(#1d5ca9a6db)"><g clip-path="url(#97a790a93b)"><g clip-path="url(#c7bb89765d)"><path fill="#ffffff" d="M 212.804688 211.070312 C 212.628906 210.984375 212.484375 210.863281 212.363281 210.707031 C 212.328125 210.664062 212.214844 210.65625 212.140625 210.667969 C 212.074219 210.675781 212.027344 210.765625 212.082031 210.8125 C 212.230469 210.9375 212.140625 211.214844 212.386719 211.269531 C 212.464844 211.398438 212.578125 211.472656 212.730469 211.484375 C 212.890625 211.5 213.074219 211.507812 213.109375 211.308594 C 213.15625 211.070312 212.964844 211.078125 212.804688 211.070312 Z M 212.804688 211.070312 " fill-opacity="1" fill-rule="nonzero"/></g></g></g><g clip-path="url(#212c5ea119)"><g clip-path="url(#add8d0abd2)"><g clip-path="url(#cad75cbcc8)"><path fill="#ffffff" d="M 295.898438 211.402344 C 295.585938 211.132812 295.199219 211.300781 294.855469 211.230469 C 294.703125 211.203125 294.496094 211.28125 294.40625 211.125 C 294.09375 210.554688 293.4375 210.367188 293.066406 209.867188 C 293.617188 209.511719 293.617188 209.511719 293.058594 209.101562 C 293.019531 209.074219 292.972656 209.054688 292.9375 209.023438 C 292.503906 208.632812 292.570312 208.421875 293.074219 208.105469 C 293.359375 207.929688 293.738281 208.09375 293.957031 207.796875 C 294.109375 207.839844 294.253906 207.816406 294.367188 207.714844 C 294.644531 207.453125 294.921875 207.203125 295.394531 207.230469 C 295.167969 206.875 294.828125 206.8125 294.574219 206.640625 C 294.429688 206.542969 294.265625 206.46875 294.375 206.277344 C 294.570312 205.945312 294.335938 205.753906 294.148438 205.570312 C 293.902344 205.335938 293.671875 205.089844 293.464844 204.824219 C 293.015625 204.238281 292.070312 204.027344 291.402344 204.363281 C 291 204.425781 290.875 203.980469 290.929688 203.867188 C 291.164062 203.382812 290.796875 203.148438 290.617188 202.832031 C 290.597656 202.851562 290.582031 202.867188 290.5625 202.882812 C 290.5625 202.882812 290.5625 202.878906 290.558594 202.878906 C 290.5625 202.878906 290.5625 202.878906 290.5625 202.882812 C 290.582031 202.863281 290.597656 202.847656 290.617188 202.832031 C 290.523438 202.488281 290.21875 202.308594 289.941406 202.277344 C 288.808594 202.136719 287.992188 201.210938 286.859375 201.085938 C 286.78125 201.078125 286.703125 200.976562 286.640625 200.90625 C 286.347656 200.585938 286.21875 200.683594 286.199219 201.074219 C 286.140625 201.117188 286.085938 201.15625 286.03125 201.199219 C 285.773438 201.195312 285.503906 200.894531 285.269531 201.167969 C 285.125 201.339844 284.9375 201.394531 284.761719 201.480469 C 284.746094 201.480469 284.734375 201.488281 284.71875 201.5 C 284.183594 201.761719 283.785156 201.300781 283.3125 201.234375 C 282.894531 201.171875 282.691406 200.714844 282.316406 200.628906 C 281.972656 200.550781 281.667969 200.445312 281.40625 200.222656 C 281.210938 200.0625 281.019531 200.015625 280.78125 200.128906 C 280.378906 200.328125 279.902344 200.300781 279.5625 200.132812 C 279.164062 199.933594 279.019531 200.09375 278.816406 200.335938 C 278.761719 200.402344 278.734375 200.527344 278.601562 200.464844 C 278.496094 200.152344 278.542969 200.027344 278.925781 199.898438 C 279.375 199.75 279.832031 199.945312 280.25 199.75 C 280.402344 199.625 280.582031 199.667969 280.753906 199.648438 C 281.214844 199.597656 281.671875 199.539062 282.128906 199.484375 C 282.21875 199.480469 282.304688 199.46875 282.394531 199.449219 C 282.921875 199.355469 283.453125 199.40625 283.980469 199.417969 C 284.265625 199.425781 284.554688 199.535156 284.832031 199.378906 C 284.894531 199.34375 284.960938 199.3125 285.023438 199.277344 C 285.175781 199.316406 285.332031 199.351562 285.484375 199.394531 C 285.640625 199.4375 285.859375 199.414062 285.855469 199.285156 C 285.832031 198.894531 286.125 198.960938 286.332031 198.886719 C 286.316406 198.867188 286.304688 198.847656 286.289062 198.828125 C 286.289062 198.828125 286.292969 198.828125 286.292969 198.828125 C 286.304688 198.847656 286.316406 198.867188 286.332031 198.886719 C 287.355469 198.65625 288.382812 198.480469 289.4375 198.511719 C 290.023438 198.628906 290.617188 198.445312 291.210938 198.554688 C 291.539062 198.617188 291.878906 198.632812 292.214844 198.65625 C 292.34375 198.664062 292.5 198.652344 292.511719 198.484375 C 292.527344 198.3125 292.375 198.289062 292.246094 198.273438 C 292.007812 198.242188 291.738281 198.28125 291.53125 198.1875 C 290.535156 197.738281 289.433594 197.804688 288.402344 197.519531 C 288.042969 197.417969 287.625 197.527344 287.347656 197.171875 C 287.183594 197.121094 286.996094 197.101562 286.855469 197.011719 C 286.484375 196.765625 286.09375 196.628906 285.648438 196.675781 C 285.554688 196.550781 285.4375 196.472656 285.28125 196.46875 C 284.859375 196.460938 284.507812 196.207031 284.105469 196.140625 C 283.582031 195.828125 282.957031 195.964844 282.40625 195.722656 C 281.988281 195.539062 281.503906 195.511719 281.058594 195.40625 C 280.46875 195.261719 279.925781 194.984375 279.328125 195.347656 C 279.238281 195.402344 279.105469 195.347656 278.992188 195.351562 C 278.585938 195.363281 278.183594 195.164062 277.808594 195.207031 C 277.253906 195.269531 276.714844 195.210938 276.167969 195.210938 C 275.992188 195.210938 275.816406 195.179688 275.664062 195.316406 C 275.277344 195.65625 274.78125 195.609375 274.320312 195.691406 C 274.261719 195.664062 274.199219 195.644531 274.136719 195.625 C 274.050781 195.554688 273.941406 195.542969 273.832031 195.539062 C 273.777344 195.519531 273.726562 195.5 273.671875 195.472656 C 273.628906 195.449219 273.582031 195.4375 273.53125 195.429688 C 273.496094 195.433594 273.460938 195.4375 273.425781 195.4375 C 272.964844 195.285156 272.46875 195.355469 272 195.253906 C 271.957031 195.292969 271.914062 195.3125 271.867188 195.324219 C 271.820312 195.328125 271.769531 195.332031 271.722656 195.339844 C 271.621094 195.335938 271.515625 195.3125 271.417969 195.328125 C 270.867188 195.347656 270.3125 195.15625 269.765625 195.347656 C 269.5 195.394531 269.234375 195.4375 268.96875 195.484375 C 269.246094 195.496094 269.542969 195.652344 269.765625 195.351562 C 269.820312 195.359375 269.878906 195.367188 269.933594 195.375 C 269.9375 195.398438 269.941406 195.425781 269.9375 195.453125 C 269.75 195.601562 269.539062 195.636719 269.300781 195.621094 C 268.554688 195.582031 267.800781 195.496094 267.054688 195.550781 C 266.726562 195.574219 266.355469 195.375 266.050781 195.648438 C 265.984375 195.585938 265.90625 195.566406 265.828125 195.601562 C 265.492188 195.738281 265.175781 195.6875 264.871094 195.546875 C 264.875 195.542969 264.882812 195.542969 264.886719 195.539062 C 264.863281 195.535156 264.839844 195.527344 264.816406 195.519531 C 264.796875 195.511719 264.78125 195.507812 264.765625 195.496094 C 264.746094 195.492188 264.726562 195.488281 264.707031 195.484375 C 264.449219 195.382812 264.195312 195.226562 263.917969 195.476562 C 263.925781 195.484375 263.9375 195.492188 263.949219 195.5 C 263.742188 195.570312 263.542969 195.65625 263.324219 195.675781 C 263.230469 195.679688 263.136719 195.683594 263.046875 195.691406 C 263 195.699219 262.953125 195.707031 262.910156 195.71875 C 262.441406 195.9375 261.992188 195.726562 261.539062 195.65625 C 261.535156 195.65625 261.53125 195.65625 261.527344 195.65625 C 261.542969 195.644531 261.558594 195.632812 261.574219 195.621094 C 261.578125 195.59375 261.582031 195.570312 261.589844 195.542969 C 261.507812 195.53125 261.433594 195.507812 261.394531 195.433594 C 261.429688 195.429688 261.464844 195.425781 261.5 195.417969 C 261.882812 195.273438 262.269531 195.355469 262.652344 195.410156 C 262.832031 195.417969 263 195.367188 263.167969 195.324219 C 263.339844 195.269531 263.5 195.1875 263.664062 195.121094 C 264.605469 195.082031 265.566406 195.277344 266.488281 194.921875 C 266.488281 194.929688 266.488281 194.9375 266.492188 194.949219 C 266.519531 194.960938 266.542969 194.972656 266.570312 194.984375 C 266.730469 194.933594 266.914062 195.078125 267.0625 194.925781 C 267.0625 194.925781 267.0625 194.929688 267.0625 194.929688 C 267.074219 194.921875 267.085938 194.914062 267.09375 194.910156 C 267.332031 195.011719 267.582031 194.925781 267.769531 194.832031 C 268.035156 194.695312 268.222656 194.730469 268.433594 194.875 C 268.609375 194.917969 268.769531 194.90625 268.941406 194.816406 C 269.316406 194.621094 269.820312 194.5 270.132812 194.640625 C 270.679688 194.882812 271.144531 194.589844 271.636719 194.652344 C 271.660156 194.617188 271.664062 194.582031 271.652344 194.550781 C 271.773438 194.535156 271.894531 194.507812 272.015625 194.5 C 272.175781 194.488281 272.371094 194.507812 272.414062 194.316406 C 272.453125 194.136719 272.25 194.074219 272.132812 194.039062 C 271.414062 193.828125 270.75 193.363281 269.945312 193.5 C 269.5 193.78125 269.074219 193.988281 268.746094 193.34375 C 268.65625 193.164062 268.484375 193.128906 268.296875 193.222656 C 268.066406 193.488281 267.628906 193.316406 267.417969 193.640625 C 267.382812 193.6875 267.246094 193.644531 267.230469 193.550781 C 267.179688 193.246094 266.945312 193.273438 266.742188 193.292969 C 266.0625 193.355469 265.390625 193.246094 264.710938 193.230469 C 264.355469 193.21875 264 193.1875 263.65625 193.3125 C 263.652344 193.3125 263.648438 193.3125 263.644531 193.316406 C 263.644531 193.3125 263.648438 193.308594 263.648438 193.304688 C 263.609375 193.25 263.558594 193.238281 263.496094 193.265625 C 262.820312 193.242188 262.140625 193.097656 261.472656 193.222656 C 260.847656 193.34375 260.214844 193.421875 259.589844 193.4375 C 258.917969 193.453125 258.246094 193.539062 257.589844 193.609375 C 256.636719 193.707031 255.675781 193.789062 254.726562 193.992188 C 253.648438 194.21875 252.535156 194.191406 251.433594 194.261719 C 251.417969 194.292969 251.414062 194.324219 251.417969 194.351562 C 251.132812 194.613281 250.773438 194.449219 250.449219 194.507812 C 250.050781 194.710938 249.546875 194.519531 249.179688 194.847656 C 248.984375 195.027344 248.886719 195.296875 248.621094 195.421875 C 248.226562 195.605469 248.113281 195.566406 248.058594 195.144531 C 248.050781 195.078125 248.039062 195.019531 248 194.96875 C 247.871094 194.960938 247.742188 194.953125 247.609375 194.945312 C 247.339844 194.867188 247.085938 194.941406 246.832031 195.015625 C 246.832031 194.980469 246.832031 194.949219 246.832031 194.914062 C 246.398438 194.851562 245.976562 195.058594 245.566406 195.035156 C 244.75 194.996094 244.214844 195.261719 243.972656 196.058594 C 244.179688 196.066406 244.238281 195.925781 244.269531 195.761719 C 244.289062 195.632812 244.3125 195.507812 244.472656 195.484375 C 244.199219 196.253906 244.574219 196.757812 245.167969 197.171875 C 245.167969 197.203125 245.167969 197.234375 245.164062 197.269531 C 245.179688 197.285156 245.195312 197.304688 245.210938 197.320312 C 245.339844 197.378906 245.476562 197.414062 245.609375 197.460938 C 245.449219 197.433594 245.292969 197.433594 245.144531 197.457031 C 245.164062 197.417969 245.171875 197.359375 245.160156 197.269531 L 245.164062 197.269531 C 245.105469 197.257812 245.046875 197.25 244.988281 197.238281 C 244.945312 197.308594 244.90625 197.375 244.863281 197.441406 C 244.902344 197.46875 244.941406 197.484375 244.972656 197.5 C 244.832031 197.542969 244.695312 197.617188 244.566406 197.71875 C 244.410156 197.714844 244.257812 197.722656 244.171875 197.882812 C 244.144531 197.859375 244.117188 197.835938 244.089844 197.816406 C 243.949219 197.757812 243.804688 197.757812 243.660156 197.792969 C 242.960938 197.960938 242.304688 198.269531 241.605469 198.433594 C 241.230469 198.519531 240.890625 198.8125 240.53125 198.761719 C 240.214844 198.71875 239.953125 198.699219 239.628906 198.78125 C 239.40625 198.835938 239.175781 198.871094 238.941406 198.898438 C 238.992188 198.863281 239.039062 198.816406 239.085938 198.761719 C 239.070312 198.738281 239.058594 198.714844 239.042969 198.691406 C 238.792969 198.722656 238.539062 198.753906 238.289062 198.789062 C 238.285156 198.816406 238.28125 198.847656 238.28125 198.875 C 238.328125 198.910156 238.371094 198.933594 238.417969 198.957031 C 237.746094 199.03125 237.078125 199.128906 236.496094 199.582031 C 236.347656 199.695312 236.117188 199.59375 235.925781 199.59375 C 235.65625 199.589844 235.390625 199.609375 235.128906 199.644531 C 235.148438 199.609375 235.160156 199.566406 235.160156 199.523438 C 235.089844 199.515625 235.023438 199.507812 234.953125 199.503906 C 234.605469 199.691406 234.144531 199.464844 233.835938 199.804688 C 233.167969 199.902344 232.570312 200.316406 231.925781 200.375 C 231.261719 200.433594 230.695312 200.664062 230.105469 200.894531 C 229.816406 201.183594 229.425781 201.007812 229.105469 201.105469 C 227.644531 201.546875 226.15625 201.917969 224.785156 202.617188 C 224.273438 202.578125 223.8125 202.71875 223.394531 203.011719 C 223.460938 203.019531 223.523438 203.023438 223.589844 203.03125 C 223.359375 203.328125 223.058594 203.617188 223.433594 204.011719 C 223.476562 204.25 223.46875 204.261719 223.136719 204.4375 C 223.128906 204.453125 223.121094 204.472656 223.113281 204.488281 C 222.722656 204.71875 222.484375 204.328125 222.175781 204.234375 C 222.144531 204.226562 222.113281 204.222656 222.082031 204.222656 C 222.023438 204.140625 221.941406 204.070312 221.847656 204.097656 C 221.8125 204.105469 221.804688 204.207031 221.789062 204.285156 C 221.78125 204.285156 221.769531 204.28125 221.761719 204.285156 C 221.761719 204.285156 221.761719 204.285156 221.757812 204.285156 C 221.746094 204.277344 221.734375 204.273438 221.722656 204.273438 C 221.828125 204.105469 221.808594 203.90625 221.828125 203.714844 C 221.789062 203.6875 221.746094 203.679688 221.703125 203.699219 C 221.234375 203.871094 220.769531 204.042969 220.300781 204.214844 C 219.683594 204.5 219.054688 204.769531 218.53125 205.222656 C 218.128906 205.363281 218.066406 205.933594 217.558594 205.984375 C 217.992188 205.96875 218.386719 205.835938 218.792969 205.765625 C 218.800781 205.765625 218.808594 205.765625 218.816406 205.769531 C 218.828125 205.765625 218.832031 205.761719 218.84375 205.757812 C 218.925781 205.746094 219.003906 205.734375 219.085938 205.730469 C 219.273438 205.601562 219.507812 205.691406 219.703125 205.597656 C 219.6875 205.574219 219.671875 205.554688 219.65625 205.535156 C 219.65625 205.535156 219.65625 205.535156 219.660156 205.535156 C 219.671875 205.554688 219.6875 205.574219 219.703125 205.597656 C 219.769531 205.625 219.757812 205.679688 219.746094 205.738281 C 219.742188 205.738281 219.746094 205.738281 219.746094 205.738281 C 219.746094 205.738281 219.742188 205.738281 219.742188 205.738281 C 219.589844 205.839844 219.433594 205.941406 219.277344 206.042969 C 219.085938 206.027344 218.84375 205.929688 218.714844 206.066406 C 218.363281 206.449219 217.914062 206.542969 217.441406 206.632812 C 217.09375 206.699219 216.898438 207.066406 216.605469 207.171875 C 215.339844 207.621094 214.472656 208.738281 213.195312 209.15625 C 213.019531 209.261719 212.839844 209.367188 212.664062 209.476562 C 212.339844 209.683594 212.296875 210.304688 212.625 210.445312 C 212.964844 210.589844 213.292969 210.941406 213.734375 210.648438 C 213.824219 210.589844 213.992188 210.613281 214.109375 210.644531 C 214.738281 210.800781 215.304688 210.636719 215.84375 210.324219 C 216.332031 210.125 216.816406 209.921875 217.304688 209.730469 C 218.277344 209.351562 219.300781 209.144531 220.332031 209.121094 C 221.074219 209.101562 221.808594 209.085938 222.578125 208.988281 C 222.140625 209.265625 221.839844 209.683594 221.476562 210.035156 C 221.15625 210.34375 220.707031 210.441406 220.410156 210.765625 C 220.34375 210.835938 220.207031 210.804688 220.183594 210.929688 C 219.839844 211.332031 219.640625 211.855469 219.160156 212.140625 C 219.101562 212.144531 219.042969 212.148438 218.980469 212.152344 C 218.53125 212.386719 218.523438 212.910156 218.265625 213.269531 C 217.886719 213.808594 217.75 214.546875 217.011719 214.785156 C 216.800781 215.023438 216.507812 215.160156 216.292969 215.40625 C 216.039062 215.691406 216.113281 215.882812 216.371094 216.074219 C 216.792969 216.394531 216.792969 216.394531 216.292969 216.613281 C 216.191406 216.65625 216.085938 216.695312 215.980469 216.734375 C 215.511719 216.878906 215.183594 217.191406 215.027344 217.644531 C 214.929688 217.933594 214.824219 218.21875 214.765625 218.53125 C 214.671875 219.035156 214.984375 220.070312 215.449219 220.351562 C 215.546875 220.488281 215.652344 220.613281 215.820312 220.667969 C 216.136719 220.910156 216.304688 220.582031 216.53125 220.484375 C 217.042969 220.332031 217.613281 220.339844 218.019531 219.910156 C 218.128906 219.796875 218.277344 219.808594 218.425781 219.796875 C 219.410156 219.722656 220.402344 219.714844 221.371094 219.472656 C 221.601562 219.265625 221.90625 219.644531 222.089844 219.417969 C 222.277344 219.191406 222.320312 219.335938 222.417969 219.464844 C 222.488281 219.554688 222.582031 219.621094 222.710938 219.605469 C 222.980469 219.808594 223.269531 220.207031 223.609375 219.84375 C 224.121094 219.300781 224.765625 219.476562 225.304688 219.527344 C 225.882812 219.585938 226.523438 219.789062 226.9375 220.3125 C 227.4375 220.472656 227.917969 220.667969 228.457031 220.679688 C 228.960938 220.691406 229.449219 220.582031 229.933594 220.574219 C 230.566406 220.566406 231.167969 220.425781 231.785156 220.355469 C 231.882812 220.34375 231.960938 220.285156 232.019531 220.414062 C 232.070312 220.535156 232.046875 220.613281 231.945312 220.707031 C 231.679688 220.941406 231.375 221.113281 231.058594 221.265625 C 230.898438 221.402344 230.707031 221.570312 230.808594 221.777344 C 230.90625 221.984375 231.117188 221.800781 231.28125 221.792969 C 231.632812 221.773438 231.980469 221.789062 232.3125 221.925781 C 232.636719 221.972656 232.972656 221.996094 233.023438 222.433594 C 233.03125 222.496094 233.105469 222.523438 233.175781 222.511719 C 233.195312 222.53125 233.21875 222.539062 233.25 222.539062 C 233.652344 222.570312 233.996094 222.390625 234.347656 222.226562 C 234.40625 222.226562 234.46875 222.222656 234.527344 222.222656 C 234.707031 222.261719 234.816406 222.101562 234.96875 222.070312 C 235.539062 221.851562 236.121094 221.714844 236.734375 221.710938 C 236.800781 221.707031 236.867188 221.628906 236.933594 221.585938 C 237.160156 221.636719 237.246094 221.507812 237.308594 221.316406 C 237.347656 221.191406 237.441406 221.054688 237.585938 221.125 C 238.023438 221.34375 238.382812 221.050781 238.773438 220.980469 C 239.320312 220.992188 239.84375 220.871094 240.339844 220.65625 C 240.863281 220.59375 241.390625 220.574219 241.898438 220.460938 C 242.234375 220.382812 242.574219 220.613281 242.882812 220.394531 C 243.363281 220.433594 243.707031 220.0625 244.160156 220 C 244.929688 219.890625 245.722656 219.90625 246.457031 219.597656 C 246.648438 219.519531 246.855469 219.429688 247.050781 219.429688 C 248.222656 219.433594 249.371094 219.246094 250.527344 219.113281 C 250.757812 219.191406 250.96875 219.148438 251.160156 219 C 251.425781 218.796875 251.722656 218.8125 252.035156 218.824219 C 252.921875 218.855469 253.8125 219.050781 254.699219 218.792969 C 254.773438 218.769531 254.875 218.84375 254.964844 218.871094 C 255.578125 219.070312 256.1875 219.058594 256.796875 218.84375 C 257.324219 218.882812 257.851562 218.96875 258.351562 218.703125 C 258.53125 218.605469 258.71875 218.664062 258.914062 218.683594 C 259.625 218.761719 260.332031 218.894531 261.050781 218.679688 C 261.300781 218.605469 261.574219 218.589844 261.855469 218.671875 C 262.144531 218.757812 262.433594 218.730469 262.746094 218.625 C 263.691406 218.296875 264.664062 218.394531 265.628906 218.566406 C 265.664062 218.71875 265.777344 218.769531 265.917969 218.78125 C 266.871094 218.855469 267.824219 218.925781 268.777344 219.078125 C 269.917969 219.261719 271.113281 219.171875 272.25 219.40625 C 273.164062 219.59375 274.09375 219.5 275.019531 219.757812 C 275.875 219.996094 276.820312 219.953125 277.722656 220.117188 C 278.289062 220.21875 278.882812 220.1875 279.464844 220.214844 C 280.605469 220.273438 281.746094 220.292969 282.871094 220.554688 C 283.433594 220.6875 284.039062 220.582031 284.660156 220.765625 C 284.578125 220.515625 284.484375 220.398438 284.332031 220.328125 C 283.691406 219.980469 282.933594 220.050781 282.277344 219.753906 C 282 219.628906 281.710938 219.421875 281.414062 219.566406 C 281.1875 219.675781 281.054688 219.589844 280.890625 219.5 C 280.695312 219.394531 280.511719 219.238281 280.300781 219.183594 C 279.941406 219.09375 279.613281 218.777344 279.230469 218.917969 C 279.035156 218.992188 278.894531 218.917969 278.730469 218.917969 C 278.089844 218.773438 277.476562 218.496094 276.800781 218.535156 C 276.636719 218.410156 276.433594 218.332031 276.257812 218.40625 C 275.878906 218.5625 275.628906 218.378906 275.371094 218.160156 C 274.988281 217.789062 274.523438 217.882812 274.089844 217.996094 C 273.785156 218.074219 273.648438 218.03125 273.644531 217.707031 C 274.332031 217.652344 275.015625 217.542969 275.707031 217.582031 C 275.765625 217.582031 275.824219 217.535156 275.882812 217.507812 C 276.539062 217.636719 277.199219 217.425781 277.855469 217.539062 C 278.03125 217.480469 278.117188 217.351562 278.210938 217.148438 C 277.988281 217.136719 277.816406 217.128906 277.644531 217.121094 C 277.589844 217.121094 277.53125 217.117188 277.476562 217.117188 C 277.378906 217.164062 277.28125 217.210938 277.183594 217.257812 C 277.074219 217.203125 276.960938 217.148438 276.847656 217.09375 C 277.515625 217.019531 278.082031 216.617188 278.746094 216.671875 C 278.910156 216.597656 279.078125 216.523438 279.242188 216.449219 C 279.605469 216.351562 279.921875 216.726562 280.296875 216.550781 C 280.296875 216.519531 280.308594 216.496094 280.332031 216.472656 C 280.582031 216.425781 280.882812 216.652344 281.085938 216.335938 C 280.816406 216.171875 280.527344 216.230469 280.242188 216.253906 C 280.242188 216.25 280.246094 216.25 280.246094 216.246094 C 280.25 216.21875 280.238281 216.195312 280.207031 216.175781 C 280.152344 216.136719 280.09375 216.101562 280.039062 216.066406 C 279.816406 215.890625 279.589844 215.875 279.355469 216.035156 C 279.324219 216.0625 279.289062 216.089844 279.253906 216.117188 C 279.054688 216.113281 278.855469 216.105469 278.65625 216.097656 C 278.628906 216.078125 278.597656 216.058594 278.570312 216.039062 C 278.253906 215.796875 277.828125 215.988281 277.503906 215.769531 C 277.40625 215.710938 277.304688 215.65625 277.183594 215.660156 C 277.015625 215.683594 276.847656 215.707031 276.683594 215.640625 C 276.621094 215.621094 276.554688 215.609375 276.488281 215.613281 C 276.445312 215.621094 276.40625 215.636719 276.367188 215.660156 C 276.363281 215.660156 276.359375 215.660156 276.355469 215.667969 C 276.132812 215.628906 275.894531 215.675781 275.675781 215.574219 C 275.621094 215.542969 275.570312 215.515625 275.515625 215.492188 C 275.515625 215.472656 275.511719 215.449219 275.5 215.429688 C 275.46875 215.398438 275.433594 215.375 275.390625 215.355469 C 275.386719 215.355469 275.382812 215.355469 275.382812 215.351562 C 275.363281 215.273438 275.371094 215.214844 275.398438 215.171875 C 275.449219 215.136719 275.507812 215.105469 275.566406 215.082031 C 275.609375 215.074219 275.65625 215.074219 275.710938 215.074219 C 275.710938 215.070312 275.710938 215.0625 275.710938 215.054688 C 275.726562 215.066406 275.738281 215.074219 275.75 215.082031 C 275.980469 215.226562 276.242188 215.238281 276.5 215.238281 C 276.796875 215.238281 277.105469 215.269531 277.347656 215.40625 C 277.699219 215.609375 278 215.6875 278.375 215.480469 C 278.539062 215.386719 278.777344 215.40625 278.925781 215.542969 C 279.140625 215.734375 279.382812 215.726562 279.609375 215.660156 C 279.949219 215.5625 280.230469 215.644531 280.523438 215.800781 C 280.769531 215.925781 281.054688 216.050781 281.308594 215.925781 C 281.378906 215.890625 281.449219 215.871094 281.515625 215.859375 C 281.476562 215.894531 281.433594 215.941406 281.390625 216.011719 C 281.402344 216.027344 281.414062 216.042969 281.425781 216.0625 C 281.546875 216.0625 281.664062 216.0625 281.78125 216.0625 C 281.777344 216.144531 281.777344 216.230469 281.773438 216.3125 C 281.703125 216.339844 281.578125 216.335938 281.605469 216.433594 C 281.660156 216.625 281.835938 216.53125 281.964844 216.546875 C 282.140625 216.585938 282.34375 216.683594 282.355469 216.367188 C 282.359375 216.335938 282.363281 216.304688 282.363281 216.273438 C 282.457031 216.277344 282.546875 216.285156 282.640625 216.292969 C 282.625 216.375 282.511719 216.460938 282.621094 216.542969 C 282.6875 216.59375 282.777344 216.582031 282.835938 216.519531 C 282.945312 216.40625 282.769531 216.375 282.761719 216.292969 C 282.820312 216.292969 282.878906 216.292969 282.941406 216.292969 C 283.105469 216.296875 283.273438 216.304688 283.4375 216.3125 C 283.441406 216.3125 283.4375 216.3125 283.441406 216.3125 C 283.785156 216.320312 284.121094 216.308594 284.472656 216.246094 C 284.882812 216.175781 285.324219 216.066406 285.757812 216.144531 C 285.757812 216.144531 285.757812 216.144531 285.757812 216.148438 C 285.859375 216.257812 286.023438 216.300781 286.105469 216.210938 C 286.449219 215.824219 286.886719 215.902344 287.316406 215.921875 C 287.449219 215.929688 287.613281 215.902344 287.671875 215.800781 C 287.949219 215.308594 288.628906 215.875 288.871094 215.328125 C 289.351562 215.601562 289.597656 215.195312 289.90625 214.96875 C 290.222656 214.703125 290.699219 214.660156 290.921875 214.257812 C 291.503906 214.039062 291.914062 213.523438 292.519531 213.359375 C 292.777344 213.457031 292.996094 213.292969 293.105469 213.140625 C 293.394531 212.757812 293.804688 212.625 294.214844 212.464844 C 294.75 212.117188 295.285156 211.769531 295.890625 211.546875 C 295.894531 211.5 295.894531 211.453125 295.898438 211.402344 Z M 282.027344 216.011719 C 282.007812 216.007812 281.992188 216.003906 281.976562 215.996094 C 281.945312 215.957031 281.917969 215.925781 281.886719 215.894531 C 281.921875 215.90625 281.957031 215.917969 281.992188 215.929688 C 282.042969 215.949219 282.089844 215.964844 282.136719 215.980469 C 282.113281 215.984375 282.089844 215.984375 282.0625 215.988281 C 282.050781 215.992188 282.039062 216.003906 282.027344 216.011719 Z M 284.84375 201.542969 C 284.84375 201.535156 284.84375 201.53125 284.84375 201.527344 C 284.847656 201.527344 284.851562 201.527344 284.855469 201.527344 C 284.851562 201.535156 284.847656 201.539062 284.84375 201.542969 Z M 282.957031 216.128906 C 282.941406 216.132812 282.925781 216.136719 282.910156 216.140625 C 282.902344 216.136719 282.898438 216.132812 282.890625 216.128906 C 282.914062 216.128906 282.933594 216.128906 282.957031 216.128906 Z M 293.445312 210.476562 C 293.441406 210.476562 293.4375 210.476562 293.433594 210.476562 C 293.433594 210.472656 293.4375 210.46875 293.4375 210.464844 C 293.441406 210.46875 293.441406 210.472656 293.445312 210.476562 Z M 285.195312 198.777344 C 285.191406 198.773438 285.1875 198.773438 285.183594 198.769531 C 285.210938 198.769531 285.238281 198.765625 285.265625 198.765625 C 285.261719 198.769531 285.253906 198.773438 285.246094 198.773438 C 285.230469 198.777344 285.210938 198.777344 285.195312 198.777344 Z M 284.886719 198.863281 C 284.886719 198.847656 284.898438 198.835938 284.914062 198.824219 C 284.90625 198.835938 284.898438 198.851562 284.886719 198.863281 Z M 281.332031 199.402344 C 281.339844 199.402344 281.351562 199.402344 281.359375 199.398438 C 281.359375 199.402344 281.359375 199.402344 281.359375 199.40625 C 281.351562 199.402344 281.339844 199.402344 281.332031 199.402344 Z M 270.574219 195.496094 C 270.566406 195.503906 270.558594 195.507812 270.550781 195.519531 C 270.542969 195.507812 270.535156 195.496094 270.527344 195.484375 C 270.542969 195.488281 270.558594 195.492188 270.574219 195.496094 Z M 261.214844 195.644531 C 261.179688 195.632812 261.148438 195.617188 261.117188 195.601562 C 260.90625 195.480469 260.734375 195.5 260.5625 195.695312 C 260.242188 196.066406 259.851562 196.066406 259.417969 195.898438 C 259.078125 195.765625 258.71875 195.726562 258.359375 195.84375 C 258.359375 195.839844 258.359375 195.832031 258.359375 195.828125 C 258.367188 195.824219 258.378906 195.824219 258.390625 195.816406 C 259.34375 195.578125 260.300781 195.335938 261.296875 195.4375 C 261.234375 195.460938 261.191406 195.503906 261.199219 195.582031 C 261.199219 195.609375 261.207031 195.625 261.214844 195.644531 Z M 247.898438 197.0625 C 247.96875 197.039062 248.039062 197.003906 248.113281 196.976562 C 248.214844 196.957031 248.3125 196.949219 248.40625 196.992188 C 248.234375 197.019531 248.066406 197.046875 247.898438 197.0625 Z M 249.273438 197.164062 C 249.175781 197.179688 249.074219 197.203125 248.976562 197.226562 C 249.058594 197.167969 249.167969 197.140625 249.273438 197.164062 Z M 256.476562 218.796875 C 256.476562 218.800781 256.476562 218.800781 256.476562 218.800781 C 256.472656 218.800781 256.46875 218.800781 256.460938 218.800781 C 256.46875 218.796875 256.472656 218.796875 256.476562 218.796875 Z M 234.855469 221.996094 C 234.847656 222.007812 234.84375 222.019531 234.839844 222.035156 C 234.824219 222.03125 234.808594 222.027344 234.792969 222.023438 C 234.8125 222.007812 234.832031 222 234.855469 221.996094 Z M 233.082031 221.964844 C 233.089844 221.96875 233.09375 221.972656 233.097656 221.976562 C 233.097656 221.980469 233.09375 221.984375 233.09375 221.988281 C 233.089844 221.980469 233.085938 221.972656 233.082031 221.964844 Z M 222.519531 219.316406 C 222.523438 219.316406 222.527344 219.316406 222.527344 219.316406 C 222.527344 219.320312 222.523438 219.328125 222.519531 219.332031 C 222.519531 219.328125 222.519531 219.324219 222.519531 219.316406 Z M 221.582031 204.6875 C 221.578125 204.691406 221.574219 204.695312 221.570312 204.699219 C 221.570312 204.695312 221.570312 204.691406 221.570312 204.691406 C 221.570312 204.6875 221.574219 204.6875 221.574219 204.6875 C 221.574219 204.6875 221.578125 204.6875 221.582031 204.6875 Z M 220.445312 204.277344 C 220.445312 204.273438 220.445312 204.269531 220.445312 204.265625 C 220.445312 204.269531 220.449219 204.269531 220.453125 204.269531 C 220.449219 204.273438 220.449219 204.277344 220.445312 204.277344 Z M 219.949219 205.792969 C 219.945312 205.796875 219.941406 205.800781 219.9375 205.804688 C 219.9375 205.800781 219.941406 205.796875 219.945312 205.792969 C 219.949219 205.792969 219.949219 205.792969 219.949219 205.792969 Z M 234.113281 199.878906 C 234.027344 199.90625 233.941406 199.933594 233.855469 199.964844 C 233.871094 199.9375 233.878906 199.902344 233.882812 199.863281 C 233.882812 199.867188 233.882812 199.867188 233.886719 199.867188 C 233.960938 199.878906 234.039062 199.882812 234.113281 199.878906 Z M 223.136719 208.84375 C 223.15625 208.929688 223.089844 209.03125 223.027344 209.035156 C 223.054688 208.992188 223.066406 208.941406 223.042969 208.867188 C 223.011719 208.777344 222.964844 208.726562 222.90625 208.699219 C 222.910156 208.699219 222.914062 208.699219 222.917969 208.699219 C 223 208.679688 223.117188 208.738281 223.136719 208.84375 Z M 221.707031 204.328125 C 221.703125 204.328125 221.703125 204.328125 221.699219 204.328125 C 221.703125 204.328125 221.707031 204.328125 221.710938 204.324219 C 221.710938 204.328125 221.710938 204.328125 221.707031 204.328125 Z M 219.789062 205.792969 C 219.789062 205.792969 219.789062 205.792969 219.789062 205.789062 C 219.789062 205.792969 219.789062 205.792969 219.789062 205.792969 Z M 277.050781 217.292969 C 277.039062 217.289062 277.03125 217.285156 277.023438 217.28125 C 277.03125 217.28125 277.039062 217.28125 277.050781 217.28125 C 277.050781 217.285156 277.050781 217.289062 277.050781 217.292969 Z M 278.078125 216.5625 C 278.082031 216.5625 278.082031 216.558594 278.085938 216.558594 C 278.085938 216.558594 278.085938 216.5625 278.089844 216.5625 C 278.085938 216.5625 278.082031 216.5625 278.078125 216.5625 Z M 278.078125 216.5625 " fill-opacity="1" fill-rule="nonzero"/></g></g></g><g clip-path="url(#02a9dffb9f)"><g clip-path="url(#c68c285dde)"><g clip-path="url(#ac0c85c8f3)"><path fill="#ffffff" d="M 228.507812 223.878906 C 228.332031 223.882812 228.207031 223.988281 228.167969 224.148438 C 228.140625 224.25 228.253906 224.25 228.355469 224.265625 C 228.484375 224.222656 228.636719 224.164062 228.671875 223.992188 C 228.691406 223.890625 228.582031 223.875 228.507812 223.878906 Z M 228.507812 223.878906 " fill-opacity="1" fill-rule="nonzero"/></g></g></g><g clip-path="url(#5a29a5ed81)"><g clip-path="url(#6147d7aa11)"><g clip-path="url(#2eb525db02)"><path fill="#ffffff" d="M 230.402344 223.195312 C 230.296875 223.253906 230.191406 223.3125 230.085938 223.371094 C 230.03125 223.398438 229.972656 223.433594 230.007812 223.503906 C 230.066406 223.625 230.179688 223.605469 230.285156 223.589844 C 230.421875 223.53125 230.554688 223.472656 230.691406 223.414062 C 230.878906 223.332031 231.0625 223.246094 231.328125 223.125 C 230.933594 222.972656 230.671875 223.136719 230.402344 223.195312 Z M 230.402344 223.195312 " fill-opacity="1" fill-rule="nonzero"/></g></g></g><g clip-path="url(#439f88dbfb)"><g clip-path="url(#f4d2c4fa06)"><g clip-path="url(#864a184ffb)"><path fill="#ffffff" d="M 278.816406 217.171875 C 278.683594 217.179688 278.460938 217.023438 278.457031 217.269531 C 278.453125 217.433594 278.679688 217.347656 278.804688 217.355469 C 279.066406 217.371094 279.324219 217.382812 279.585938 217.398438 C 279.699219 217.382812 279.839844 217.472656 279.929688 217.316406 C 279.855469 217.15625 279.707031 217.230469 279.59375 217.207031 C 279.335938 217.195312 279.074219 217.183594 278.816406 217.171875 Z M 278.816406 217.171875 " fill-opacity="1" fill-rule="nonzero"/></g></g></g><g clip-path="url(#eb713e4715)"><g clip-path="url(#16d1b566cd)"><g clip-path="url(#8dae49c1f2)"><path fill="#ffffff" d="M 285.652344 220.609375 C 285.523438 220.601562 285.398438 220.59375 285.269531 220.585938 C 285.140625 220.585938 284.933594 220.488281 284.925781 220.667969 C 284.917969 220.847656 285.132812 220.777344 285.257812 220.785156 C 285.386719 220.789062 285.515625 220.796875 285.644531 220.800781 C 285.882812 220.792969 286.128906 220.875 286.460938 220.742188 C 286.144531 220.582031 285.890625 220.636719 285.652344 220.609375 Z M 285.652344 220.609375 " fill-opacity="1" fill-rule="nonzero"/></g></g></g><g clip-path="url(#1f7bfd30f7)"><g clip-path="url(#c8e49b83e4)"><g clip-path="url(#0726832a6b)"><path fill="#ffffff" d="M 232.210938 222.632812 C 232.121094 222.597656 232.015625 222.601562 231.988281 222.726562 C 231.96875 222.84375 232.054688 222.894531 232.152344 222.910156 C 232.257812 222.929688 232.371094 222.949219 232.4375 222.828125 C 232.433594 222.675781 232.304688 222.667969 232.210938 222.632812 Z M 232.210938 222.632812 " fill-opacity="1" fill-rule="nonzero"/></g></g></g><g clip-path="url(#efef6be091)"><g clip-path="url(#01a2f94f75)"><g clip-path="url(#fbdf13a424)"><path fill="#ffffff" d="M 269.941406 193.394531 C 270.328125 193.421875 270.714844 193.445312 271.101562 193.472656 C 270.726562 193.277344 270.335938 193.308594 269.941406 193.394531 Z M 269.941406 193.394531 " fill-opacity="1" fill-rule="nonzero"/></g></g></g><g clip-path="url(#420ab779db)"><g clip-path="url(#736a713c3b)"><g clip-path="url(#be8c73b6d4)"><path fill="#ffffff" d="M 228.9375 223.792969 C 229.070312 223.957031 229.195312 223.953125 229.328125 223.875 C 229.34375 223.863281 229.359375 223.804688 229.347656 223.796875 C 229.230469 223.675781 229.105469 223.691406 228.9375 223.792969 Z M 228.9375 223.792969 " fill-opacity="1" fill-rule="nonzero"/></g></g></g><g clip-path="url(#4553ca3524)"><g clip-path="url(#7815f84606)"><g clip-path="url(#f3c6165830)"><path fill="#ffffff" d="M 277.378906 194.535156 C 277.441406 194.539062 277.515625 194.539062 277.523438 194.453125 C 277.527344 194.363281 277.449219 194.363281 277.386719 194.351562 C 277.324219 194.355469 277.246094 194.351562 277.242188 194.4375 C 277.238281 194.523438 277.3125 194.53125 277.378906 194.535156 Z M 277.378906 194.535156 " fill-opacity="1" fill-rule="nonzero"/></g></g></g><g clip-path="url(#38fb2c9c48)"><g clip-path="url(#b68faa9771)"><g clip-path="url(#52f06c92e9)"><path fill="#ffffff" d="M 285.308594 200.839844 C 285.273438 200.921875 285.359375 200.933594 285.417969 200.945312 C 285.480469 200.957031 285.542969 200.949219 285.578125 200.882812 C 285.589844 200.789062 285.519531 200.773438 285.460938 200.773438 C 285.40625 200.777344 285.320312 200.800781 285.308594 200.839844 Z M 285.308594 200.839844 " fill-opacity="1" fill-rule="nonzero"/></g></g></g><g clip-path="url(#3caa903326)"><g clip-path="url(#bf41a1f0ae)"><g clip-path="url(#4fe797168c)"><path fill="#ffffff" d="M 286.351562 199.316406 C 286.3125 199.375 286.359375 199.429688 286.433594 199.441406 C 286.507812 199.457031 286.589844 199.46875 286.632812 199.378906 C 286.644531 199.289062 286.574219 199.265625 286.515625 199.265625 C 286.460938 199.261719 286.375 199.277344 286.351562 199.316406 Z M 286.351562 199.316406 " fill-opacity="1" fill-rule="nonzero"/></g></g></g><g clip-path="url(#54608bfe22)"><g clip-path="url(#1f3cba9e1b)"><g clip-path="url(#e3e2eb3344)"><path fill="#ffffff" d="M 266.65625 223.003906 C 266.597656 223.019531 266.515625 223.015625 266.53125 223.105469 C 266.546875 223.179688 266.617188 223.191406 266.679688 223.1875 C 266.742188 223.179688 266.824219 223.179688 266.808594 223.085938 C 266.792969 223.015625 266.722656 223.007812 266.65625 223.003906 Z M 266.65625 223.003906 " fill-opacity="1" fill-rule="nonzero"/></g></g></g><g clip-path="url(#76d7b3aa88)"><g clip-path="url(#7dcf7d50c8)"><g clip-path="url(#35bb2b8205)"><path fill="#ffffff" d="M 283.503906 200.671875 C 283.316406 200.640625 283.121094 200.570312 282.9375 200.742188 C 283.121094 200.921875 283.308594 200.878906 283.492188 200.859375 C 283.617188 200.882812 283.824219 200.925781 283.832031 200.808594 C 283.84375 200.597656 283.632812 200.683594 283.503906 200.671875 Z M 283.503906 200.671875 " fill-opacity="1" fill-rule="nonzero"/></g></g></g><g clip-path="url(#cf88a42f7c)"><g clip-path="url(#19466fafe5)"><g clip-path="url(#85f4a71b9c)"><path fill="#ffffff" d="M 229.945312 198.664062 C 230.003906 198.660156 230.089844 198.660156 230.070312 198.566406 C 230.058594 198.496094 229.984375 198.484375 229.921875 198.484375 C 229.859375 198.496094 229.777344 198.492188 229.792969 198.585938 C 229.808594 198.65625 229.878906 198.671875 229.945312 198.664062 Z M 229.945312 198.664062 " fill-opacity="1" fill-rule="nonzero"/></g></g></g><g clip-path="url(#9dea7e161a)"><g clip-path="url(#a7007a175b)"><g clip-path="url(#49a3b0bcc1)"><path fill="#ffffff" d="M 286.910156 199.550781 C 286.886719 199.660156 286.984375 199.671875 287.0625 199.671875 C 287.121094 199.671875 287.195312 199.667969 287.195312 199.582031 C 287.195312 199.496094 287.125 199.492188 287.027344 199.476562 C 287.003906 199.492188 286.921875 199.511719 286.910156 199.550781 Z M 286.910156 199.550781 " fill-opacity="1" fill-rule="nonzero"/></g></g></g><g clip-path="url(#f98cb4231b)"><g clip-path="url(#267cd51c4a)"><g clip-path="url(#bbe23bb8f9)"><path fill="#ffffff" d="M 223.183594 203.199219 C 223.011719 203.394531 223.097656 203.667969 222.964844 203.875 C 223.289062 203.730469 223.152344 203.4375 223.183594 203.199219 Z M 223.183594 203.199219 " fill-opacity="1" fill-rule="nonzero"/></g></g></g><g clip-path="url(#f4b6f646ed)"><g clip-path="url(#772058ab2c)"><g clip-path="url(#60e763de41)"><path fill="#ffffff" d="M 273.875 194.558594 C 274.191406 194.425781 274.515625 194.347656 274.859375 194.417969 C 275.050781 194.429688 275.246094 194.441406 275.4375 194.449219 C 275.613281 194.46875 275.789062 194.503906 275.960938 194.492188 C 276.09375 194.484375 276.171875 194.40625 276.039062 194.273438 C 275.8125 194.171875 275.59375 193.890625 275.359375 194.253906 C 275.195312 194.242188 275.035156 194.230469 274.875 194.21875 C 274.613281 194.210938 274.351562 194.199219 274.089844 194.191406 C 273.804688 193.964844 273.511719 193.804688 273.183594 194.125 C 273.160156 194.109375 273.140625 194.113281 273.121094 194.136719 C 273.117188 194.207031 273.109375 194.277344 273.105469 194.347656 C 273.183594 194.414062 273.269531 194.460938 273.375 194.457031 C 273.519531 194.609375 273.699219 194.585938 273.875 194.558594 Z M 273.515625 194.414062 C 273.519531 194.417969 273.523438 194.425781 273.527344 194.429688 C 273.523438 194.429688 273.515625 194.433594 273.507812 194.433594 C 273.511719 194.425781 273.511719 194.421875 273.515625 194.414062 Z M 273.515625 194.414062 " fill-opacity="1" fill-rule="nonzero"/></g></g></g><g clip-path="url(#726eeffe36)"><g clip-path="url(#fdb0e32154)"><g clip-path="url(#f93eb70158)"><path fill="#ffffff" d="M 244.199219 197.121094 C 244.355469 197.101562 244.511719 197.078125 244.667969 197.058594 C 244.484375 196.878906 244.320312 196.835938 244.199219 197.121094 Z M 244.199219 197.121094 " fill-opacity="1" fill-rule="nonzero"/></g></g></g><g clip-path="url(#7721495a90)"><g clip-path="url(#75bfe9d041)"><g clip-path="url(#d87307a942)"><path fill="#ffffff" d="M 279.960938 215.660156 C 279.734375 215.753906 279.453125 215.59375 279.253906 215.816406 C 279.5 215.804688 279.785156 215.96875 279.960938 215.660156 Z M 279.960938 215.660156 " fill-opacity="1" fill-rule="nonzero"/></g></g></g><g clip-path="url(#9ab1fddb97)"><g clip-path="url(#606ab74167)"><g clip-path="url(#d1b8353826)"><path fill="#ffffff" d="M 278.289062 215.574219 C 278.484375 215.589844 278.683594 215.601562 278.882812 215.613281 C 278.699219 215.386719 278.496094 215.441406 278.289062 215.574219 Z M 278.289062 215.574219 " fill-opacity="1" fill-rule="nonzero"/></g></g></g><g clip-path="url(#4a236c06ae)"><g clip-path="url(#1a90956d50)"><g clip-path="url(#a77fa56324)"><path fill="#ffffff" d="M 222.730469 204.230469 C 222.816406 204.234375 222.878906 204.210938 222.882812 204.132812 C 222.882812 204.113281 222.816406 204.074219 222.777344 204.070312 C 222.722656 204.066406 222.632812 204.039062 222.648438 204.144531 C 222.652344 204.179688 222.707031 204.207031 222.730469 204.230469 Z M 222.730469 204.230469 " fill-opacity="1" fill-rule="nonzero"/></g></g></g><g clip-path="url(#51d5bab7da)"><path fill="#bdddf4" d="M 63.011719 160.890625 L 54.269531 160.890625 L 44.066406 174.167969 L 58.640625 174.167969 Z M 63.011719 160.890625 " fill-opacity="1" fill-rule="nonzero"/></g><g clip-path="url(#407a23ac86)"><path fill="#5dadec" d="M 96.527344 174.167969 L 86.328125 160.890625 L 77.582031 160.890625 L 81.957031 174.167969 Z M 96.527344 174.167969 " fill-opacity="1" fill-rule="nonzero"/></g><g clip-path="url(#bb9d547f54)"><path fill="#4289c1" d="M 81.957031 174.167969 L 96.527344 174.167969 L 70.296875 205.140625 Z M 81.957031 174.167969 " fill-opacity="1" fill-rule="nonzero"/></g><g clip-path="url(#79282a6efe)"><path fill="#8ccaf7" d="M 58.640625 174.167969 L 44.066406 174.167969 L 70.296875 205.140625 Z M 63.011719 160.890625 L 58.640625 174.167969 L 81.957031 174.167969 L 77.582031 160.890625 Z M 63.011719 160.890625 " fill-opacity="1" fill-rule="nonzero"/></g><g clip-path="url(#c770893600)"><path fill="#5dadec" d="M 70.296875 205.140625 L 58.640625 174.167969 L 81.957031 174.167969 Z M 70.296875 205.140625 " fill-opacity="1" fill-rule="nonzero"/></g><g fill="#000000" fill-opacity="1"><g transform="translate(225.688919, 214.526325)"><g><path d="M 4.484375 -9.5 C 4.046875 -9.46875 3.734375 -9.40625 3.296875 -9.328125 L 0.21875 -8.765625 L 0.265625 -0.046875 L 3.4375 -0.625 C 3.890625 -0.703125 4.09375 -0.734375 4.53125 -0.859375 C 7.4375 -1.6875 8.515625 -4.015625 8.078125 -6.484375 C 7.65625 -8.75 6.203125 -9.59375 4.484375 -9.5 Z M 4 -2.515625 C 3.71875 -2.453125 3.515625 -2.40625 3.203125 -2.359375 L 2.453125 -2.21875 L 2.4375 -7.390625 L 3.15625 -7.53125 C 3.484375 -7.59375 3.6875 -7.625 3.96875 -7.65625 C 4.890625 -7.734375 5.5 -7.28125 5.734375 -6 C 6.03125 -4.4375 5.546875 -2.953125 4 -2.515625 Z M 4 -2.515625 "/></g></g></g><g fill="#000000" fill-opacity="1"><g transform="translate(234.846856, 212.890446)"><g><path d="M 2.90625 -7.21875 L 7.109375 -7.703125 L 7.21875 -9.46875 L 0.78125 -8.734375 L 0.265625 -0.03125 L 6.796875 -0.78125 L 6.90625 -2.546875 L 2.59375 -2.0625 L 2.703125 -3.78125 L 6.640625 -4.234375 L 6.75 -6 L 2.8125 -5.546875 Z M 2.90625 -7.21875 "/></g></g></g><g fill="#000000" fill-opacity="1"><g transform="translate(242.702442, 211.992443)"><g><path d="M 4.265625 -9 C 2.390625 -8.90625 0.671875 -7.734375 0.78125 -5.78125 C 0.859375 -4.5 1.859375 -3.9375 3.53125 -3.609375 C 4.4375 -3.40625 4.796875 -3.046875 4.828125 -2.65625 C 4.859375 -2.109375 4.3125 -1.703125 3.640625 -1.671875 C 2.953125 -1.625 2.328125 -1.9375 2.28125 -2.75 L 0.046875 -2.640625 C -0.046875 -0.703125 1.40625 0.09375 3.484375 -0.015625 C 5.484375 -0.125 7.296875 -1.21875 7.1875 -3.234375 C 7.125 -4.3125 6.421875 -5.109375 4.84375 -5.40625 C 3.59375 -5.609375 3.1875 -5.921875 3.15625 -6.390625 C 3.125 -6.984375 3.546875 -7.328125 4.125 -7.359375 C 4.859375 -7.390625 5.171875 -6.9375 5.171875 -6.21875 L 7.421875 -6.34375 C 7.421875 -7.9375 6.515625 -9.125 4.265625 -9 Z M 4.265625 -9 "/></g></g></g><g fill="#000000" fill-opacity="1"><g transform="translate(250.649586, 211.610223)"><g><path d="M 2.5 -0.015625 L 3.9375 -8.625 L 1.703125 -8.609375 L 0.265625 0 Z M 2.5 -0.015625 "/></g></g></g><g fill="#000000" fill-opacity="1"><g transform="translate(254.582521, 211.501806)"><g><path d="M 6.421875 -8.484375 C 3.75 -8.609375 1.0625 -6.84375 0.90625 -3.25 C 0.8125 -1 2.046875 0.265625 4.015625 0.34375 C 4.921875 0.390625 5.53125 0.265625 6.09375 -0.109375 L 6.6875 -1.046875 L 6.59375 0.28125 L 8.328125 0.359375 L 9.34375 -4.1875 L 5.578125 -4.34375 L 5.1875 -2.625 L 6.84375 -2.546875 C 6.328125 -1.625 5.671875 -1.21875 4.796875 -1.265625 C 3.921875 -1.296875 3.25 -1.890625 3.3125 -3.40625 C 3.40625 -5.78125 4.734375 -6.9375 6.046875 -6.875 C 6.96875 -6.84375 7.4375 -6.375 7.40625 -5.453125 L 7.40625 -5.328125 L 9.640625 -5.234375 L 9.65625 -5.359375 C 9.84375 -7.046875 8.859375 -8.375 6.421875 -8.484375 Z M 6.421875 -8.484375 "/></g></g></g><g fill="#000000" fill-opacity="1"><g transform="translate(264.288033, 211.921208)"><g><path d="M 10.9375 -7.359375 L 8.71875 -7.625 L 6.984375 -1.859375 L 5.53125 -8 L 2.765625 -8.328125 L 0.265625 0.03125 L 2.484375 0.296875 L 4.140625 -5.234375 L 5.515625 0.65625 L 8.421875 1 Z M 10.9375 -7.359375 "/></g></g></g><g fill="#000000" fill-opacity="1"><g transform="translate(274.05798, 213.109926)"><g><path d="M 6.265625 -7.734375 C 4.421875 -8.078125 2.484375 -7.359375 2.125 -5.4375 C 1.890625 -4.15625 2.734375 -3.390625 4.28125 -2.65625 C 5.109375 -2.265625 5.390625 -1.828125 5.3125 -1.4375 C 5.21875 -0.90625 4.578125 -0.625 3.921875 -0.75 C 3.25 -0.875 2.703125 -1.34375 2.859375 -2.140625 L 0.671875 -2.546875 C 0.109375 -0.6875 1.328125 0.421875 3.375 0.8125 C 5.359375 1.171875 7.390625 0.546875 7.75 -1.4375 C 7.953125 -2.5 7.453125 -3.4375 5.96875 -4.09375 C 4.828125 -4.609375 4.5 -5.015625 4.578125 -5.46875 C 4.6875 -6.0625 5.1875 -6.28125 5.75 -6.171875 C 6.46875 -6.03125 6.671875 -5.53125 6.515625 -4.828125 L 8.734375 -4.421875 C 9.09375 -5.96875 8.484375 -7.328125 6.265625 -7.734375 Z M 6.265625 -7.734375 "/></g></g></g></svg>